<svg width="184" height="57" viewBox="0 0 184 57" fill="none" xmlns="http://www.w3.org/2000/svg">
<path d="M61.251 17V40.7316H57V17H61.251Z" fill="#111318"/>
<path d="M68.6559 33.8375C68.9302 35.8925 70.7815 37.4172 73.8326 37.4172C75.4096 37.4172 77.5008 36.8537 78.4607 35.8594L81.2033 38.4778C79.3863 40.3008 76.4038 41.1957 73.764 41.1957C67.7989 41.1957 64.2335 37.616 64.2335 32.2797C64.2335 27.1755 67.8332 23.5295 73.4212 23.5295C79.2149 23.5295 82.8489 27.0097 82.1632 33.8707H68.6559V33.8375ZM78.0493 30.4236C77.7751 28.2361 76.0267 27.1755 73.5583 27.1755C71.2271 27.1755 69.3416 28.2692 68.7245 30.4236H78.0493Z" fill="#111318"/>
<path d="M96.6306 40.7316V31.7826C96.6306 29.5619 95.4307 27.5732 93.0995 27.5732C90.7683 27.5732 89.397 29.5619 89.397 31.7826V40.7316H85.1117V23.9604H89.0885L89.397 25.9822C90.3226 24.2919 92.311 23.6621 93.9566 23.6621C96.0135 23.6621 98.1047 24.4907 99.0989 26.7777C100.642 24.3913 102.63 23.7284 104.893 23.7284C109.795 23.7284 112.229 26.6451 112.229 31.6831V40.7316H107.944V31.6831C107.944 29.4624 106.984 27.6063 104.687 27.6063C102.39 27.6063 100.916 29.5287 100.916 31.7494V40.6985H96.6306V40.7316Z" fill="#111318"/>
<path d="M120.251 33.8375C120.525 35.8925 122.376 37.4172 125.428 37.4172C127.005 37.4172 129.096 36.8537 130.056 35.8594L132.798 38.4778C130.981 40.3008 127.999 41.1957 125.359 41.1957C119.394 41.1957 115.829 37.616 115.829 32.2797C115.829 27.1755 119.428 23.5295 125.016 23.5295C130.81 23.5295 134.444 27.0097 133.758 33.8707H120.251V33.8375ZM129.644 30.4236C129.37 28.2361 127.622 27.1755 125.153 27.1755C122.822 27.1755 120.937 28.2692 120.32 30.4236H129.644Z" fill="#111318"/>
<path d="M149.802 40.7316V31.9814C149.802 29.4293 148.363 27.5069 145.62 27.5069C142.98 27.5069 141.197 29.6613 141.197 32.1803V40.7316H136.946V23.9604H140.786L141.06 26.2474C142.809 24.5901 144.557 23.7284 146.751 23.7284C150.831 23.7284 154.088 26.6783 154.088 31.9483V40.7316H149.802Z" fill="#111318"/>
<path d="M175 32.3792C175 37.1851 171.606 41.0962 165.984 41.0962C160.361 41.0962 157.002 37.1851 157.002 32.3792C157.002 27.6063 160.43 23.6621 165.949 23.6621C171.469 23.6621 175 27.6063 175 32.3792ZM161.253 32.3792C161.253 34.9313 162.83 37.3177 165.949 37.3177C169.069 37.3177 170.646 34.9313 170.646 32.3792C170.646 29.8602 168.829 27.4075 165.949 27.4075C162.898 27.4406 161.253 29.8602 161.253 32.3792Z" fill="#111318"/>
<path d="M43.8721 26.0568C43.5888 25.4444 43.0737 25.0361 42.4814 24.8575C42.0435 24.73 41.5799 24.7555 41.1421 24.9086C40.2149 25.2403 39.3393 25.3678 38.5666 25.1637C37.8455 24.9596 37.2274 24.4748 36.7381 23.6073L33.5445 17.9939C32.5143 16.1568 31.0463 14.7024 29.3722 13.6563C28.4966 13.1205 27.5694 12.7122 26.5907 12.406C26.5907 12.406 26.5907 12.406 26.565 12.406L23.1653 24.3472L19.74 23.3776C18.9416 23.148 18.0917 23.6073 17.8599 24.4238C17.6281 25.2147 18.0917 26.0568 18.9158 26.2864L23.6032 27.5877C24.5303 27.8428 25.4833 27.307 25.7666 26.3885L28.5481 16.6416C29.5267 17.3815 30.3767 18.3256 30.9948 19.4228L34.1883 25.0361C35.27 26.9498 36.7381 27.6897 37.794 27.9959C37.9228 28.047 38.0773 28.0725 38.2318 28.098L28.4708 33.5072L28.4193 33.5328L28.3678 33.5583L18.6068 38.9675C18.6583 38.84 18.7098 38.6869 18.7355 38.5593C19.0188 37.5131 19.1476 35.8802 18.0659 33.9665L14.9496 28.4807C13.7391 26.3374 13.3786 23.8114 14.0482 21.464C14.7178 19.1166 16.2631 17.1774 18.4007 15.9782C18.4265 15.9782 18.4265 15.9527 18.4522 15.9527C18.478 15.9527 18.478 15.9271 18.5037 15.9271C19.5339 15.3658 20.6414 14.9831 21.7746 14.83C22.3412 14.7534 22.8563 14.3707 23.0366 13.8349C23.3714 12.8398 22.573 11.8192 21.517 11.8957C20.4611 11.9723 19.4309 12.1764 18.5037 12.4826L18.1174 11.8192C17.3963 10.5434 15.3617 10.8241 14.9496 12.2019L12.5544 17.6622L10.6486 21.8977C10.4683 22.306 10.288 22.7142 10.1592 23.097C10.082 23.3011 10.0304 23.4797 9.97894 23.6583C9.12903 26.6181 9.43809 29.8841 11.0864 32.7928L14.28 38.4062C14.7693 39.2737 14.8723 40.0647 14.6663 40.7791C14.4603 41.5446 13.8937 42.2335 13.121 42.8203C12.7604 43.101 12.5029 43.5093 12.3741 43.9175C12.2196 44.5044 12.2969 45.1422 12.6574 45.7036C13.3013 46.6477 14.5633 46.8773 15.5677 46.3415L21.5428 43.0245C21.8519 43.4327 22.2382 43.7644 22.7275 44.0451C24.041 44.785 25.6893 44.6575 26.977 43.8665C27.8527 43.3307 28.3163 42.6417 28.5738 41.9018C28.5738 41.9018 28.5738 41.9018 28.5738 41.8763L29.9903 38.3296L41.6315 31.8743C42.1208 31.5936 42.4814 31.1598 42.6616 30.675L43.8979 27.6132C44.0781 27.1284 44.0781 26.5671 43.8721 26.0568Z" fill="#A6ADBA"/>
</svg>
