<svg width="642" height="642" viewBox="0 0 642 642" fill="none" xmlns="http://www.w3.org/2000/svg">
<path d="M207.424 86.1628L528.366 226.799C556.376 239.074 560.601 277.074 535.961 295.192L253.712 502.846C229.078 520.97 194.057 505.626 190.687 475.24L151.993 126.955C148.617 96.544 179.413 73.8878 207.424 86.1628Z" fill="#FFC1EB"/>
<path d="M102.515 518.376H571.579C571.92 518.376 572.246 518.241 572.487 518C572.728 517.76 572.863 517.433 572.863 517.092C572.863 516.752 572.728 516.425 572.487 516.185C572.246 515.944 571.92 515.808 571.579 515.808H102.515C102.174 515.808 101.847 515.944 101.607 516.185C101.366 516.425 101.231 516.752 101.231 517.092C101.231 517.433 101.366 517.76 101.607 518C101.847 518.241 102.174 518.376 102.515 518.376Z" fill="black"/>
<path d="M278.48 263.111L262.469 210.197C262.246 209.459 261.862 208.778 261.346 208.205C260.83 207.631 260.193 207.179 259.482 206.88C258.771 206.581 258.002 206.442 257.231 206.474C256.46 206.506 255.706 206.707 255.022 207.064L237.739 216.052C236.992 216.441 236.349 217.004 235.866 217.694C235.382 218.384 235.072 219.18 234.961 220.015C234.85 220.85 234.942 221.7 235.229 222.492C235.516 223.284 235.989 223.995 236.609 224.565L278.48 263.111Z" fill="#FB6D6D"/>
<path d="M282.583 261.037L236.898 232.597C236.189 232.155 235.389 231.88 234.559 231.789C233.728 231.699 232.888 231.797 232.101 232.076C231.314 232.355 230.599 232.807 230.01 233.399C229.421 233.992 228.973 234.709 228.7 235.498L222.639 253.044C222.351 253.877 222.266 254.767 222.389 255.64C222.512 256.512 222.841 257.343 223.348 258.064C223.855 258.785 224.526 259.375 225.306 259.786C226.086 260.197 226.952 260.417 227.833 260.427L282.583 261.037Z" fill="#FB6D6D"/>
<path d="M347.181 358.949C325.91 358.949 308.667 341.706 308.667 320.435C308.667 299.165 325.91 281.922 347.181 281.922C368.451 281.922 385.694 299.165 385.694 320.435C385.694 341.706 368.451 358.949 347.181 358.949Z" fill="black"/>
<path d="M190.962 229.836H55.7074C47.1143 229.836 40.1483 237.626 40.1483 247.234V314.195C40.1483 323.804 47.1143 331.593 55.7074 331.593H190.962C199.555 331.593 206.521 323.804 206.521 314.195V247.234C206.521 237.626 199.555 229.836 190.962 229.836Z" fill="white"/>
<path d="M190.962 332.877H55.7131C51.2819 332.872 47.0335 330.901 43.9002 327.398C40.7669 323.894 39.0046 319.143 39 314.188V247.241C39.0046 242.286 40.7669 237.535 43.9002 234.031C47.0335 230.528 51.2819 228.557 55.7131 228.552H190.962C195.392 228.559 199.639 230.53 202.771 234.034C205.903 237.537 207.665 242.287 207.669 247.241V314.188C207.665 319.142 205.903 323.892 202.771 327.395C199.639 330.899 195.392 332.87 190.962 332.877ZM55.7131 231.12C51.8905 231.123 48.2254 232.823 45.5224 235.845C42.8194 238.868 41.2996 242.966 41.2965 247.241V314.188C41.2996 318.463 42.8194 322.561 45.5224 325.584C48.2254 328.606 51.8905 330.306 55.7131 330.309H190.962C194.783 330.304 198.447 328.604 201.149 325.581C203.851 322.559 205.37 318.462 205.373 314.188V247.241C205.37 242.967 203.851 238.87 201.149 235.848C198.447 232.825 194.783 231.125 190.962 231.12H55.7131Z" fill="black"/>
<path d="M180.512 256.8H64.5606C59.9564 256.8 56.224 259.077 56.224 261.887V265.837C56.224 268.647 59.9564 270.924 64.5606 270.924H180.512C185.117 270.924 188.849 268.647 188.849 265.837V261.887C188.849 259.077 185.117 256.8 180.512 256.8Z" fill="#FFBB45"/>
<path d="M183.265 288.258H61.8075C61.2403 288.258 60.6963 288.123 60.2952 287.882C59.8942 287.641 59.6688 287.314 59.6688 286.974C59.6688 286.633 59.8942 286.307 60.2952 286.066C60.6963 285.825 61.2403 285.69 61.8075 285.69H183.265C183.833 285.69 184.377 285.825 184.778 286.066C185.179 286.307 185.404 286.633 185.404 286.974C185.404 287.314 185.179 287.641 184.778 287.882C184.377 288.123 183.833 288.258 183.265 288.258Z" fill="black"/>
<path d="M166.044 304.95H61.8051C61.2385 304.95 60.6951 304.815 60.2945 304.574C59.8939 304.333 59.6688 304.007 59.6688 303.666C59.6688 303.326 59.8939 302.999 60.2945 302.758C60.6951 302.517 61.2385 302.382 61.8051 302.382H166.044C166.61 302.382 167.154 302.517 167.554 302.758C167.955 302.999 168.18 303.326 168.18 303.666C168.18 304.007 167.955 304.333 167.554 304.574C167.154 304.815 166.61 304.95 166.044 304.95Z" fill="black"/>
<path d="M232.006 392.179C209.768 392.179 191.74 374.266 191.74 352.169C191.74 330.072 209.768 312.16 232.006 312.16C254.244 312.16 272.272 330.072 272.272 352.169C272.272 374.266 254.244 392.179 232.006 392.179Z" fill="black"/>
<path d="M272.272 338.199C250.034 338.199 232.006 320.286 232.006 298.19C232.006 276.093 250.034 258.18 272.272 258.18C294.511 258.18 312.538 276.093 312.538 298.19C312.538 320.286 294.511 338.199 272.272 338.199Z" fill="black"/>
<path d="M307.646 291.763H332.119C338.144 291.763 344.109 290.577 349.675 288.271C355.241 285.965 360.298 282.586 364.557 278.326C368.817 274.066 372.196 269.008 374.5 263.442C376.805 257.876 377.991 251.91 377.99 245.886V214.582C377.982 207.386 375.117 200.487 370.025 195.402C364.933 190.318 358.03 187.462 350.834 187.464H317.79C306.593 187.464 295.855 191.912 287.937 199.829C280.02 207.747 275.572 218.485 275.572 229.682V259.747C275.575 263.955 276.408 268.122 278.022 272.008C279.635 275.895 281.999 279.426 284.977 282.399C287.956 285.372 291.491 287.729 295.38 289.336C299.27 290.943 303.438 291.768 307.646 291.763Z" fill="black"/>
<path d="M367.866 198.185C367.866 198.185 382.388 200.33 386.202 231.043C386.653 234.795 388.272 238.31 390.83 241.09L393.167 243.62C393.756 244.256 394.092 245.087 394.109 245.954C394.127 246.822 393.826 247.665 393.264 248.326L390.098 252.049L391.697 271.694C391.697 271.694 394.907 292.63 370.261 291.982H354.583V313.7H305.31V276.368C305.31 276.368 294.081 274.442 292.039 263.387C291.524 260.623 291.641 257.779 292.381 255.067C293.122 252.355 294.467 249.846 296.315 247.729C299.994 243.562 306.478 240.025 317.154 245.006C317.148 245.006 359.559 253.519 367.866 198.185Z" fill="white"/>
<path d="M308.667 268.131C309.683 268.131 310.676 267.83 311.521 267.266C312.365 266.701 313.023 265.899 313.412 264.961C313.801 264.022 313.903 262.99 313.704 261.993C313.506 260.997 313.017 260.082 312.299 259.364C311.581 258.645 310.665 258.156 309.669 257.958C308.673 257.76 307.64 257.861 306.702 258.25C305.763 258.639 304.961 259.297 304.397 260.142C303.832 260.986 303.531 261.979 303.531 262.995C303.531 264.357 304.072 265.664 305.035 266.627C305.999 267.59 307.305 268.131 308.667 268.131ZM308.667 260.389C309.175 260.389 309.672 260.539 310.094 260.822C310.516 261.104 310.845 261.505 311.04 261.974C311.234 262.443 311.285 262.96 311.186 263.458C311.087 263.956 310.842 264.413 310.483 264.773C310.124 265.132 309.666 265.376 309.168 265.475C308.67 265.574 308.154 265.524 307.684 265.329C307.215 265.135 306.814 264.806 306.532 264.383C306.25 263.961 306.099 263.465 306.099 262.957C306.099 262.276 306.37 261.622 306.851 261.141C307.333 260.659 307.986 260.389 308.667 260.389Z" fill="black"/>
<path d="M312.538 264.26C312.872 264.26 313.193 264.13 313.433 263.898C313.673 263.665 313.812 263.348 313.822 263.015C313.912 260.363 313.123 258.219 311.466 256.639C308.179 253.507 302.69 253.905 302.478 253.924C302.138 253.95 301.822 254.111 301.6 254.37C301.377 254.63 301.267 254.967 301.294 255.307C301.32 255.648 301.481 255.964 301.74 256.186C302 256.408 302.337 256.518 302.677 256.492C302.722 256.492 307.274 256.171 309.739 258.521C310.85 259.586 311.357 261.031 311.293 262.944C311.287 263.113 311.314 263.282 311.374 263.44C311.433 263.599 311.524 263.744 311.639 263.867C311.755 263.991 311.894 264.09 312.048 264.16C312.203 264.229 312.369 264.268 312.538 264.273V264.26Z" fill="black"/>
<path d="M362.698 244.968C361.021 244.968 359.661 243.608 359.661 241.931C359.661 240.254 361.021 238.895 362.698 238.895C364.375 238.895 365.735 240.254 365.735 241.931C365.735 243.608 364.375 244.968 362.698 244.968Z" fill="black"/>
<path d="M373.362 270.577C374.598 270.582 375.823 270.338 376.963 269.858C380.655 268.298 383.133 264.183 383.126 259.625C383.125 259.242 383.04 258.865 382.877 258.519C382.714 258.173 382.478 257.867 382.184 257.623C381.89 257.378 381.547 257.201 381.177 257.103C380.807 257.005 380.421 256.989 380.045 257.057L364.733 259.792C364.342 259.864 363.972 260.024 363.651 260.26C363.33 260.496 363.068 260.802 362.882 261.154C362.697 261.506 362.594 261.896 362.581 262.294C362.568 262.692 362.645 263.087 362.807 263.451C364.772 267.817 369.118 270.577 373.362 270.577ZM380.507 259.554C380.514 259.573 380.514 259.593 380.507 259.612C380.507 263.156 378.664 266.314 375.91 267.483C371.686 269.268 366.82 266.199 365.093 262.347L365.131 262.27L380.449 259.535L380.507 259.554Z" fill="black"/>
<path d="M354.987 292.007H331.445C331.237 292.009 331.035 292.082 330.874 292.215C330.713 292.347 330.602 292.531 330.56 292.735C330.518 292.939 330.547 293.152 330.643 293.337C330.738 293.523 330.895 293.67 331.086 293.754L354.987 303.961V292.007Z" fill="black"/>
<path d="M354.988 313.2C354.992 312.029 354.621 310.887 353.927 309.944C353.233 309.001 352.255 308.305 351.136 307.961C350.279 307.702 349.4 307.525 348.51 307.434C345.147 307.123 341.778 307.958 338.95 309.803C336.589 307.974 333.688 306.978 330.701 306.971C327.714 306.964 324.808 307.946 322.438 309.765C320.047 308.16 317.253 307.257 314.375 307.158C312.569 307.109 310.768 307.383 309.059 307.967C307.994 308.339 307.071 309.034 306.419 309.954C305.766 310.875 305.417 311.975 305.419 313.103V324.338H354.988V313.2Z" fill="#C7B8F8"/>
<path d="M163.858 475.273L447.14 475.035L434.583 360.072C433.392 349.177 428.227 339.103 420.076 331.777C411.925 324.45 401.36 320.385 390.4 320.358L273.293 320.063C259.63 320.03 246.268 324.079 234.922 331.692C223.576 339.304 214.763 350.132 209.613 362.788C185.859 417.409 168.673 457.29 166.798 462.022C165.906 464.342 165.191 466.726 164.66 469.154C164.243 471.171 163.975 473.216 163.858 475.273Z" fill="#C7B8F8"/>
<path d="M249.565 475.125H394.772V376.713H285.189C283.692 376.713 282.235 377.192 281.03 378.081C279.825 378.969 278.936 380.22 278.493 381.65L249.565 475.125Z" fill="black"/>
<path d="M285.209 377.997C285.514 378.001 285.812 377.896 286.047 377.701C286.283 377.506 286.441 377.233 286.493 376.931C286.852 374.806 295.115 324.858 277.877 318.856C277.555 318.743 277.202 318.763 276.895 318.911C276.588 319.06 276.352 319.324 276.24 319.645C276.127 319.967 276.148 320.32 276.296 320.627C276.444 320.934 276.708 321.17 277.029 321.282C289.658 325.674 286.313 362.634 283.957 376.494C283.928 376.661 283.933 376.832 283.97 376.996C284.008 377.161 284.077 377.317 284.175 377.455C284.273 377.592 284.397 377.709 284.54 377.799C284.683 377.889 284.843 377.95 285.009 377.978C285.075 377.989 285.142 377.996 285.209 377.997Z" fill="black"/>
<path d="M391.562 377.997C391.852 377.997 392.133 377.9 392.36 377.72C392.588 377.541 392.748 377.29 392.814 377.008C396.167 363.032 396.257 348.472 393.077 334.456C391.925 329.466 390.352 324.583 388.378 319.857C388.241 319.552 387.99 319.313 387.679 319.19C387.368 319.067 387.021 319.071 386.713 319.199C386.404 319.328 386.158 319.572 386.026 319.88C385.895 320.187 385.889 320.534 386.009 320.846C387.926 325.439 389.453 330.185 390.574 335.034C393.666 348.668 393.576 362.831 390.31 376.424C390.272 376.588 390.267 376.758 390.295 376.925C390.323 377.091 390.383 377.251 390.472 377.394C390.562 377.537 390.679 377.661 390.816 377.759C390.953 377.857 391.109 377.927 391.273 377.965C391.368 377.988 391.465 377.999 391.562 377.997Z" fill="black"/>
<path d="M557.394 74.4719H433.606C421.822 74.4719 412.269 84.1354 412.269 96.056V233.142C412.269 245.063 421.822 254.726 433.606 254.726H557.394C569.178 254.726 578.731 245.063 578.731 233.142V96.056C578.731 84.1354 569.178 74.4719 557.394 74.4719Z" fill="white"/>
<path d="M557.394 256.01H433.606C427.613 256.003 421.867 253.592 417.629 249.305C413.391 245.018 411.007 239.205 411 233.142V96.056C411.007 89.9931 413.391 84.1805 417.629 79.8934C421.867 75.6063 427.613 73.1948 433.606 73.188H557.394C563.387 73.1948 569.133 75.6063 573.371 79.8934C577.609 84.1805 579.993 89.9931 580 96.056V233.142C579.993 239.205 577.609 245.018 573.371 249.305C569.133 253.592 563.387 256.003 557.394 256.01ZM433.606 75.756C428.286 75.7628 423.186 77.9037 419.424 81.7092C415.662 85.5148 413.545 90.6742 413.539 96.056V233.142C413.545 238.524 415.662 243.684 419.424 247.489C423.186 251.295 428.286 253.436 433.606 253.442H557.394C562.714 253.436 567.814 251.295 571.576 247.489C575.338 243.684 577.455 238.524 577.461 233.142V96.056C577.456 90.6737 575.34 85.5132 571.578 81.7074C567.816 77.9015 562.715 75.7611 557.394 75.756H433.606Z" fill="black"/>
<path d="M453.857 142.261H437.299C432.494 142.261 428.598 146.202 428.598 151.063V167.813C428.598 172.674 432.494 176.614 437.299 176.614H453.857C458.663 176.614 462.558 172.674 462.558 167.813V151.063C462.558 146.202 458.663 142.261 453.857 142.261Z" fill="#FFC1EB"/>
<path d="M453.857 194.41H437.299C432.494 194.41 428.598 198.351 428.598 203.212V219.962C428.598 224.823 432.494 228.764 437.299 228.764H453.857C458.663 228.764 462.558 224.823 462.558 219.962V203.212C462.558 198.351 458.663 194.41 453.857 194.41Z" fill="#FFC1EB"/>
<path d="M560.173 151.082H483.521C483.184 151.082 482.861 150.947 482.623 150.706C482.385 150.465 482.251 150.138 482.251 149.798C482.251 149.457 482.385 149.131 482.623 148.89C482.861 148.649 483.184 148.514 483.521 148.514H560.173C560.51 148.514 560.833 148.649 561.071 148.89C561.309 149.131 561.443 149.457 561.443 149.798C561.443 150.138 561.309 150.465 561.071 150.706C560.833 150.947 560.51 151.082 560.173 151.082Z" fill="black"/>
<path d="M530.77 169.989H483.521C483.184 169.989 482.861 169.854 482.623 169.613C482.385 169.372 482.251 169.045 482.251 168.705C482.251 168.364 482.385 168.038 482.623 167.797C482.861 167.556 483.184 167.421 483.521 167.421H530.77C531.107 167.421 531.43 167.556 531.668 167.797C531.906 168.038 532.039 168.364 532.039 168.705C532.039 169.045 531.906 169.372 531.668 169.613C531.43 169.854 531.107 169.989 530.77 169.989Z" fill="black"/>
<path d="M560.173 203.418H483.521C483.184 203.418 482.861 203.282 482.623 203.042C482.385 202.801 482.251 202.474 482.251 202.134C482.251 201.793 482.385 201.467 482.623 201.226C482.861 200.985 483.184 200.85 483.521 200.85H560.173C560.51 200.85 560.833 200.985 561.071 201.226C561.309 201.467 561.443 201.793 561.443 202.134C561.443 202.474 561.309 202.801 561.071 203.042C560.833 203.282 560.51 203.418 560.173 203.418Z" fill="black"/>
<path d="M530.77 222.325H483.521C483.184 222.325 482.861 222.19 482.623 221.949C482.385 221.708 482.251 221.381 482.251 221.041C482.251 220.7 482.385 220.374 482.623 220.133C482.861 219.892 483.184 219.757 483.521 219.757H530.77C531.107 219.757 531.43 219.892 531.668 220.133C531.906 220.374 532.039 220.7 532.039 221.041C532.039 221.381 531.906 221.708 531.668 221.949C531.43 222.19 531.107 222.325 530.77 222.325Z" fill="black"/>
<path d="M458.884 98.6303C458.355 97.6425 457.561 96.8259 456.593 96.2742C452.151 93.7576 447.67 95.3176 445.474 98.5854C443.246 95.2791 438.677 93.719 434.177 96.3705C433.362 96.8566 432.68 97.5434 432.197 98.3671C430.154 101.827 430.554 105.307 432.267 107.785C432.297 107.831 432.331 107.874 432.369 107.914C432.407 107.965 434.59 110.527 435.954 111.926C437.122 113.114 440.003 115.836 444.141 119.213C444.509 119.512 444.967 119.676 445.439 119.676C445.911 119.676 446.369 119.512 446.737 119.213C449.193 117.223 451.18 115.502 452.671 114.192C453.792 113.239 454.852 112.214 455.844 111.124C458.002 108.768 462.698 105.647 458.884 98.6303Z" fill="#FB6D6D"/>
<path d="M409.917 297.708C411.252 295.982 412.784 294.418 414.482 293.047L414.552 292.983C417.727 290.165 420.486 286.909 422.744 283.315C424.747 280.105 425.954 276.817 427.919 271.759C428.901 269.242 429.594 267.265 429.979 266.16C434.557 253.012 437.562 241.225 442.21 239.53C442.909 239.293 443.636 239.144 444.373 239.087C445.354 238.995 446.343 239.101 447.283 239.397C448.222 239.694 449.093 240.176 449.843 240.814C450.341 241.239 450.773 241.734 451.127 242.284C452.925 245.141 452.032 249.282 450.19 257.442C449.894 258.726 449.631 259.785 449.458 260.491L445.728 277.594C445.728 277.594 454.896 279.668 454.382 286.935C454.382 286.935 462.856 281.915 466.143 291.776C466.143 291.776 476.865 292.643 473.751 304.404C473.751 304.404 469.43 320.146 463.03 320.666C463.03 320.666 464.237 345.229 443.827 355.976L410.443 351.777L408.248 342.263C402.47 317.225 405.076 309.104 406.046 306.099C406.983 303.152 408.283 300.334 409.917 297.708Z" fill="white"/>
<path d="M439.5 342.051C439.703 342.052 439.903 342.004 440.084 341.913C440.264 341.821 440.421 341.688 440.54 341.525C444.395 336.292 446.788 330.127 447.474 323.664C448.931 308.898 440.495 297.984 437.041 294.229L439.719 287.321C439.982 286.621 440.322 285.729 440.701 284.843C442.826 279.906 443.782 275.758 443.539 272.51C443.469 271.529 443.202 270.572 442.753 269.697C442.304 268.822 441.682 268.047 440.926 267.419C440.184 266.8 439.325 266.339 438.4 266.063C437.476 265.788 436.504 265.703 435.546 265.814C429.729 266.456 426.249 273.107 426.102 273.383C426.024 273.533 425.977 273.697 425.963 273.865C425.949 274.033 425.968 274.203 426.019 274.364C426.07 274.525 426.153 274.674 426.262 274.803C426.371 274.932 426.504 275.039 426.654 275.116C426.804 275.194 426.968 275.241 427.136 275.255C427.305 275.27 427.474 275.25 427.635 275.199C427.796 275.148 427.945 275.065 428.074 274.956C428.203 274.848 428.31 274.714 428.387 274.564C428.387 274.506 431.385 268.857 435.828 268.369C436.444 268.297 437.069 268.35 437.664 268.527C438.259 268.704 438.811 268.999 439.288 269.396C439.779 269.804 440.182 270.308 440.472 270.876C440.762 271.444 440.934 272.066 440.977 272.702C441.189 275.534 440.303 279.276 438.345 283.828C437.94 284.759 437.587 285.696 437.318 286.396L434.056 294.806L434.628 295.397C437.407 298.28 446.357 308.815 444.9 323.401C444.267 329.404 442.052 335.131 438.48 339.997C438.279 340.271 438.196 340.614 438.248 340.949C438.299 341.285 438.482 341.587 438.756 341.788C438.97 341.952 439.231 342.044 439.5 342.051Z" fill="black"/>
<path d="M366.775 468.853C375.469 468.28 384.194 469.316 392.512 471.909C423.463 481.661 437.196 510.242 440.11 516.714L366.775 517.092V468.853Z" fill="white"/>
<path d="M365.491 518.383L442.094 517.985L441.285 516.187C436.496 505.581 422.205 479.921 392.898 470.682C384.43 468.042 375.548 466.986 366.698 467.569L365.491 467.646V518.383ZM438.101 515.443L368.059 515.802V470.066C376.201 469.67 384.349 470.715 392.127 473.154C418.905 481.571 432.753 504.291 438.101 515.443Z" fill="black"/>
<path d="M450.986 324.21C452.239 324.222 453.48 323.95 454.613 323.414C456.025 322.722 457.221 321.659 458.073 320.339C458.513 320.876 459.063 321.314 459.685 321.623C460.865 322.182 462.215 322.262 463.453 321.847C463.612 321.79 463.757 321.701 463.882 321.587C464.006 321.473 464.107 321.336 464.178 321.183C464.249 321.03 464.29 320.865 464.297 320.696C464.304 320.528 464.278 320.359 464.221 320.201C464.163 320.042 464.074 319.897 463.96 319.772C463.846 319.648 463.709 319.547 463.556 319.476C463.403 319.405 463.238 319.364 463.069 319.357C462.901 319.35 462.732 319.376 462.574 319.434C461.988 319.61 461.358 319.566 460.802 319.312C460.414 319.062 460.08 318.737 459.818 318.357C459.557 317.977 459.374 317.548 459.28 317.097L457.996 312.917L456.796 317.116C456.796 317.116 455.942 319.921 453.464 321.09C451.705 321.925 449.471 321.777 446.826 320.66C446.669 320.586 446.5 320.545 446.327 320.539C446.154 320.532 445.982 320.561 445.821 320.622C445.659 320.684 445.512 320.778 445.388 320.898C445.263 321.018 445.164 321.161 445.097 321.32C445.029 321.48 444.995 321.651 444.995 321.823C444.995 321.996 445.03 322.167 445.098 322.326C445.166 322.485 445.265 322.629 445.39 322.748C445.515 322.868 445.662 322.961 445.824 323.022C447.448 323.759 449.203 324.163 450.986 324.21Z" fill="black"/>
<path d="M458.054 318.766C458.327 318.765 458.591 318.677 458.811 318.516C459.03 318.354 459.192 318.127 459.274 317.867L467.376 292.149C467.478 291.823 467.447 291.471 467.289 291.169C467.131 290.866 466.86 290.639 466.535 290.537C466.21 290.435 465.857 290.466 465.555 290.624C465.253 290.782 465.026 291.053 464.924 291.378L456.854 317.097C456.803 317.258 456.784 317.427 456.799 317.595C456.814 317.764 456.862 317.927 456.94 318.077C457.018 318.226 457.125 318.359 457.254 318.468C457.384 318.576 457.533 318.658 457.695 318.708C457.811 318.744 457.932 318.764 458.054 318.766Z" fill="black"/>
<path d="M445.343 313.444C445.607 313.443 445.865 313.361 446.081 313.208C446.297 313.055 446.461 312.839 446.55 312.59L455.57 287.353C455.627 287.194 455.652 287.025 455.643 286.857C455.635 286.688 455.594 286.523 455.522 286.37C455.449 286.218 455.348 286.081 455.223 285.967C455.098 285.854 454.952 285.766 454.793 285.709C454.634 285.652 454.465 285.627 454.297 285.636C454.128 285.644 453.963 285.685 453.81 285.757C453.658 285.829 453.521 285.931 453.407 286.056C453.294 286.181 453.206 286.327 453.149 286.486L444.161 311.73C444.092 311.924 444.071 312.131 444.099 312.335C444.127 312.539 444.204 312.733 444.323 312.902C444.442 313.07 444.6 313.207 444.783 313.301C444.966 313.395 445.169 313.444 445.375 313.444H445.343Z" fill="black"/>
<path d="M109.172 171.485H193.178C205.361 171.485 215.237 181.359 215.237 193.541C215.237 205.722 205.361 215.596 193.178 215.596H109.172C96.9891 215.596 87.1129 205.722 87.1129 193.541C87.1129 181.359 96.9891 171.485 109.172 171.485Z" fill="white"/>
<path d="M109.14 216.887H193.184C199.375 216.887 205.313 214.427 209.69 210.05C214.068 205.672 216.527 199.735 216.527 193.544C216.527 187.353 214.068 181.415 209.69 177.038C205.313 172.66 199.375 170.201 193.184 170.201H109.14C102.949 170.201 97.0116 172.66 92.6339 177.038C88.2562 181.415 85.7969 187.353 85.7969 193.544C85.7969 199.735 88.2562 205.672 92.6339 210.05C97.0116 214.427 102.949 216.887 109.14 216.887ZM193.184 172.769C198.694 172.769 203.978 174.957 207.874 178.853C211.771 182.75 213.959 188.034 213.959 193.544C213.959 199.054 211.771 204.338 207.874 208.234C203.978 212.13 198.694 214.319 193.184 214.319H109.14C103.63 214.319 98.3459 212.13 94.4498 208.234C90.5537 204.338 88.3649 199.054 88.3649 193.544C88.3649 188.034 90.5537 182.75 94.4498 178.853C98.3459 174.957 103.63 172.769 109.14 172.769H193.184Z" fill="black"/>
<path d="M186.084 200.728C182.116 200.728 178.9 197.511 178.9 193.544C178.9 189.576 182.116 186.36 186.084 186.36C190.051 186.36 193.268 189.576 193.268 193.544C193.268 197.511 190.051 200.728 186.084 200.728Z" fill="#6DC8C2"/>
<path d="M151.178 200.728C147.211 200.728 143.994 197.511 143.994 193.544C143.994 189.576 147.211 186.36 151.178 186.36C155.146 186.36 158.362 189.576 158.362 193.544C158.362 197.511 155.146 200.728 151.178 200.728Z" fill="#6DC8C2"/>
<path d="M116.273 200.728C112.305 200.728 109.089 197.511 109.089 193.544C109.089 189.576 112.305 186.36 116.273 186.36C120.24 186.36 123.457 189.576 123.457 193.544C123.457 197.511 120.24 200.728 116.273 200.728Z" fill="#6DC8C2"/>
<path d="M528.937 292.11H569.736C578.09 292.11 584.862 298.882 584.862 307.236V348.035C584.862 356.388 578.09 363.16 569.736 363.16H528.937C520.584 363.16 513.812 356.388 513.812 348.035V307.236C513.812 298.882 520.584 292.11 528.937 292.11Z" fill="white"/>
<path d="M528.798 364.637H569.59C573.942 364.631 578.112 362.899 581.189 359.821C584.265 356.744 585.995 352.573 586 348.221V307.416C585.995 303.065 584.265 298.893 581.189 295.816C578.112 292.739 573.942 291.007 569.59 291H528.798C524.446 291.005 520.273 292.736 517.196 295.814C514.118 298.891 512.387 303.064 512.382 307.416V348.202C512.382 352.558 514.111 356.735 517.189 359.817C520.267 362.899 524.442 364.632 528.798 364.637ZM569.59 293.587C573.258 293.591 576.775 295.048 579.37 297.641C581.964 300.233 583.425 303.748 583.432 307.416V348.202C583.429 351.873 581.969 355.392 579.375 357.988C576.78 360.584 573.261 362.045 569.59 362.05H528.798C525.127 362.045 521.607 360.584 519.011 357.989C516.416 355.393 514.955 351.873 514.95 348.202V307.416C514.953 303.744 516.413 300.224 519.01 297.628C521.606 295.031 525.126 293.571 528.798 293.568L569.59 293.587Z" fill="black"/>
<path d="M218.806 530.221H357.864C359.985 530.222 362.087 529.805 364.047 528.994C366.007 528.182 367.789 526.993 369.289 525.493C370.79 523.993 371.98 522.212 372.793 520.251C373.605 518.291 374.023 516.19 374.023 514.069V487.406C374.021 477.894 370.242 468.772 363.515 462.045C356.789 455.319 347.667 451.54 338.154 451.538H187.592C181.292 451.538 175.251 454.04 170.796 458.495C166.341 462.95 163.838 468.992 163.838 475.292C163.841 482.508 165.265 489.653 168.028 496.318C170.792 502.984 174.842 509.04 179.946 514.141C185.05 519.241 191.109 523.287 197.777 526.046C204.445 528.805 211.59 530.224 218.806 530.221Z" fill="#C7B8F8"/>
<path d="M433.844 532.77C439.601 532.651 445.278 531.399 450.551 529.085C455.823 526.772 460.589 523.442 464.575 519.287C468.561 515.132 471.689 510.232 473.781 504.868C475.874 499.503 476.889 493.779 476.768 488.023L474.374 372.816C474.234 366.2 471.473 359.91 466.697 355.329C461.921 350.749 455.522 348.252 448.906 348.388L411.124 349.177C404.513 349.32 398.23 352.083 393.655 356.858C389.08 361.632 386.589 368.028 386.728 374.639L389.097 489.846C389.216 495.603 390.468 501.279 392.782 506.552C395.095 511.825 398.425 516.59 402.58 520.576C406.735 524.562 411.635 527.691 416.999 529.783C422.364 531.875 428.088 532.89 433.844 532.77Z" fill="#C7B8F8"/>
<path d="M228.231 451.531H263.092C263.432 451.531 263.759 451.396 264 451.155C264.24 450.915 264.376 450.588 264.376 450.247C264.376 449.907 264.24 449.58 264 449.339C263.759 449.099 263.432 448.963 263.092 448.963H228.231C227.89 448.963 227.564 449.099 227.323 449.339C227.082 449.58 226.947 449.907 226.947 450.247C226.947 450.588 227.082 450.915 227.323 451.155C227.564 451.396 227.89 451.531 228.231 451.531Z" fill="black"/>
<path d="M268.484 264.87C270.33 264.87 272.134 264.323 273.668 263.298C275.203 262.273 276.4 260.816 277.107 259.112C277.814 257.407 278 255.531 277.641 253.721C277.283 251.911 276.395 250.248 275.092 248.941C273.788 247.635 272.127 246.745 270.317 246.382C268.508 246.02 266.632 246.202 264.926 246.906C263.22 247.609 261.76 248.803 260.732 250.335C259.704 251.868 259.154 253.671 259.15 255.516C259.148 256.743 259.388 257.959 259.857 259.093C260.325 260.227 261.012 261.258 261.879 262.127C262.746 262.996 263.775 263.685 264.909 264.156C266.042 264.626 267.257 264.869 268.484 264.87ZM268.484 248.769C269.824 248.769 271.133 249.166 272.246 249.91C273.359 250.655 274.226 251.713 274.738 252.95C275.249 254.188 275.382 255.549 275.12 256.862C274.857 258.176 274.211 259.381 273.262 260.327C272.314 261.272 271.107 261.915 269.793 262.174C268.479 262.433 267.118 262.296 265.882 261.781C264.645 261.266 263.59 260.396 262.849 259.281C262.108 258.165 261.714 256.855 261.718 255.516C261.725 253.725 262.44 252.01 263.708 250.746C264.976 249.481 266.694 248.77 268.484 248.769Z" fill="black"/>
<path d="M386.548 377.997C386.889 377.997 387.215 377.861 387.456 377.621C387.697 377.38 387.832 377.053 387.832 376.713C387.999 351.091 408.954 350.532 409.834 350.532C410.174 350.532 410.501 350.397 410.741 350.156C410.982 349.915 411.118 349.589 411.118 349.248C411.118 348.907 410.982 348.581 410.741 348.34C410.501 348.099 410.174 347.964 409.834 347.964C409.59 347.964 385.476 348.523 385.29 376.719C385.29 377.06 385.425 377.386 385.666 377.627C385.907 377.868 386.233 378.003 386.574 378.003L386.548 377.997Z" fill="black"/>
<path d="M311.486 321.719H351.29C351.63 321.719 351.957 321.584 352.197 321.343C352.438 321.102 352.574 320.776 352.574 320.435C352.574 320.095 352.438 319.768 352.197 319.527C351.957 319.286 351.63 319.151 351.29 319.151H311.486C311.145 319.151 310.818 319.286 310.578 319.527C310.337 319.768 310.202 320.095 310.202 320.435C310.202 320.776 310.337 321.102 310.578 321.343C310.818 321.584 311.145 321.719 311.486 321.719Z" fill="black"/>
<path d="M349.209 525.233C349.55 525.233 349.877 525.098 350.117 524.857C350.358 524.616 350.493 524.29 350.493 523.949V465.707C350.493 465.366 350.358 465.04 350.117 464.799C349.877 464.558 349.55 464.423 349.209 464.423C348.869 464.423 348.542 464.558 348.302 464.799C348.061 465.04 347.925 465.366 347.925 465.707V523.949C347.925 524.29 348.061 524.616 348.302 524.857C348.542 525.098 348.869 525.233 349.209 525.233Z" fill="black"/>
<path d="M402.117 372.54H460.353C460.693 372.54 461.02 372.404 461.26 372.164C461.501 371.923 461.637 371.596 461.637 371.256C461.637 370.915 461.501 370.589 461.26 370.348C461.02 370.107 460.693 369.972 460.353 369.972H402.117C401.776 369.972 401.45 370.107 401.209 370.348C400.968 370.589 400.833 370.915 400.833 371.256C400.833 371.596 400.968 371.923 401.209 372.164C401.45 372.404 401.776 372.54 402.117 372.54Z" fill="black"/>
<path d="M541.964 459.601C542.227 459.602 542.484 459.521 542.699 459.371C542.915 459.22 543.08 459.007 543.171 458.76C550.618 438.447 566.013 421.954 566.167 421.794C566.401 421.546 566.527 421.216 566.518 420.875C566.508 420.534 566.363 420.211 566.116 419.977C565.868 419.743 565.537 419.617 565.197 419.626C564.856 419.636 564.533 419.781 564.299 420.028C564.145 420.195 548.39 437.054 540.757 457.906C540.641 458.226 540.656 458.578 540.799 458.886C540.942 459.194 541.202 459.433 541.521 459.55C541.664 459.595 541.814 459.612 541.964 459.601Z" fill="black"/>
<path d="M534.696 461.694C535.037 461.694 535.363 461.559 535.604 461.318C535.845 461.077 535.98 460.751 535.98 460.41V442.826C535.98 442.485 535.845 442.159 535.604 441.918C535.363 441.677 535.037 441.542 534.696 441.542C534.356 441.542 534.029 441.677 533.788 441.918C533.547 442.159 533.412 442.485 533.412 442.826V460.41C533.412 460.751 533.547 461.077 533.788 461.318C534.029 461.559 534.356 461.694 534.696 461.694Z" fill="black"/>
<path d="M496.863 486.854C496.865 482.651 498.535 478.62 501.508 475.648C504.48 472.676 508.511 471.005 512.714 471.003H516.245V459.03H559.94V471.01H563.471C567.674 471.01 571.706 472.68 574.679 475.652C577.652 478.625 579.322 482.657 579.322 486.861C579.316 491.061 577.644 495.087 574.672 498.054C571.699 501.022 567.671 502.688 563.471 502.686C565.552 502.685 567.613 503.094 569.536 503.89C571.459 504.686 573.207 505.853 574.678 507.325C576.15 508.796 577.318 510.543 578.115 512.466C578.911 514.388 579.322 516.449 579.322 518.531C579.322 520.612 578.913 522.674 578.117 524.598C577.32 526.521 576.153 528.269 574.681 529.741C573.209 531.213 571.461 532.38 569.537 533.177C567.614 533.973 565.552 534.382 563.471 534.382H512.714C508.51 534.382 504.478 532.712 501.506 529.739C498.533 526.766 496.863 522.735 496.863 518.531C496.865 514.328 498.536 510.298 501.508 507.326C504.48 504.355 508.511 502.686 512.714 502.686C508.513 502.686 504.485 501.019 501.512 498.05C498.54 495.082 496.868 491.055 496.863 486.854Z" fill="#6DC8C2"/>
<path d="M512.046 504.06H529.952C530.292 504.06 530.619 503.925 530.86 503.684C531.1 503.443 531.236 503.116 531.236 502.776C531.236 502.435 531.1 502.109 530.86 501.868C530.619 501.627 530.292 501.492 529.952 501.492H512.046C511.706 501.492 511.379 501.627 511.138 501.868C510.898 502.109 510.762 502.435 510.762 502.776C510.762 503.116 510.898 503.443 511.138 503.684C511.379 503.925 511.706 504.06 512.046 504.06Z" fill="black"/>
<path d="M555.048 503.97H564.421C564.761 503.97 565.088 503.835 565.329 503.594C565.569 503.353 565.705 503.027 565.705 502.686C565.705 502.345 565.569 502.019 565.329 501.778C565.088 501.537 564.761 501.402 564.421 501.402H555.048C554.707 501.402 554.38 501.537 554.14 501.778C553.899 502.019 553.764 502.345 553.764 502.686C553.764 503.027 553.899 503.353 554.14 503.594C554.38 503.835 554.707 503.97 555.048 503.97Z" fill="black"/>
<path d="M538.086 462.754C525.8 462.754 515.841 460.678 515.841 458.118C515.841 455.558 525.8 453.483 538.086 453.483C550.372 453.483 560.331 455.558 560.331 458.118C560.331 460.678 550.372 462.754 538.086 462.754Z" fill="black"/>
<path d="M534.696 442.826C528.899 442.826 524.199 438.126 524.199 432.329C524.199 426.532 528.899 421.833 534.696 421.833C540.493 421.833 545.193 426.532 545.193 432.329C545.193 438.126 540.493 442.826 534.696 442.826Z" fill="#FFBB45"/>
<path d="M569.011 427.867C562.799 427.867 557.763 422.831 557.763 416.619C557.763 410.407 562.799 405.372 569.011 405.372C575.223 405.372 580.259 410.407 580.259 416.619C580.259 422.831 575.223 427.867 569.011 427.867Z" fill="#FFBB45"/>
<path d="M433.6 255.221C434.884 251.715 436.74 247.215 439.346 243.453C441.555 240.243 444.078 238.895 446.851 239.376C447.653 239.472 448.424 239.744 449.109 240.172C449.794 240.601 450.375 241.175 450.812 241.854C453.002 245.366 451.544 251.561 450.812 254.052L450.716 254.373L453.162 255.15L453.278 254.771C454.298 251.253 455.627 244.724 452.989 240.493C452.363 239.505 451.529 238.665 450.544 238.034C449.559 237.403 448.447 236.995 447.288 236.84C443.494 236.198 440.014 237.957 437.228 241.976C434.441 245.995 432.548 250.669 431.186 254.309L433.6 255.221Z" fill="black"/>
<path d="M574.756 323.793C574.756 323.793 574.756 323.779 574.742 323.779C574.324 322.866 573.556 322.249 572.666 321.994C572.02 321.819 571.332 321.833 570.658 322.074C569.27 322.584 567.949 322.772 566.776 322.45C565.698 322.155 564.768 321.416 564.013 320.074L559.228 311.563C557.665 308.784 555.481 306.582 552.947 305.011C551.64 304.206 550.225 303.561 548.769 303.105C548.755 303.105 548.755 303.105 548.742 303.105L543.633 321.175L538.458 319.725C537.245 319.389 535.978 320.087 535.641 321.296C535.304 322.504 536.005 323.766 537.218 324.101L544.253 326.075C545.655 326.464 547.097 325.659 547.488 324.262L551.667 309.495C553.149 310.623 554.403 312.046 555.346 313.711L560.131 322.222C561.762 325.108 563.986 326.249 565.563 326.692C565.779 326.746 565.995 326.8 566.21 326.84L551.532 335.043L551.465 335.083L551.397 335.123L536.719 343.326C536.8 343.125 536.867 342.91 536.921 342.695C537.366 341.124 537.555 338.627 535.924 335.741L531.247 327.444C529.427 324.209 528.874 320.383 529.872 316.812C530.869 313.267 533.187 310.327 536.409 308.515C536.436 308.502 536.463 308.488 536.476 308.475C536.503 308.461 536.517 308.448 536.544 308.435C538.094 307.575 539.765 307.025 541.477 306.797C542.339 306.676 543.108 306.112 543.377 305.28C543.876 303.763 542.663 302.232 541.086 302.366C539.495 302.501 537.932 302.796 536.544 303.266L535.978 302.246C534.886 300.312 531.84 300.729 531.193 302.809L527.58 311.093L524.709 317.537C524.426 318.141 524.17 318.758 523.968 319.349V319.362C523.86 319.658 523.766 319.94 523.685 320.235C522.418 324.706 522.876 329.673 525.329 334.049L530.128 342.561C530.883 343.89 531.017 345.085 530.721 346.145C530.397 347.313 529.535 348.333 528.376 349.246C527.823 349.689 527.446 350.267 527.27 350.911C527.014 351.797 527.149 352.777 527.715 353.609C528.672 355.019 530.6 355.395 532.096 354.563L541.099 349.528C541.571 350.132 542.164 350.656 542.879 351.059C544.86 352.186 547.327 351.998 549.268 350.79C550.575 349.985 551.289 348.924 551.68 347.81C551.68 347.81 551.68 347.796 551.694 347.77L553.837 342.4L571.359 332.613C572.1 332.197 572.64 331.539 572.909 330.8L574.769 326.182C575.066 325.417 575.093 324.558 574.756 323.793Z" fill="#1A1A1A"/>
</svg>
