<svg width="1440" height="339" viewBox="0 0 1440 339" fill="none" xmlns="http://www.w3.org/2000/svg">
<g clip-path="url(#clip0_175_1734)">
<rect width="1440" height="339" fill="#F7F8F9"/>
<g opacity="0.4">
<rect width="1440" height="1320" transform="translate(0 -470)" fill="#F7F8F9"/>
<line x1="1464" y1="202.5" x2="-24" y2="202.5" stroke="#D5DAE1"/>
<line x1="1464" y1="226.5" x2="-24" y2="226.5" stroke="#D5DAE1"/>
<line x1="1464" y1="250.5" x2="-24" y2="250.5" stroke="#D5DAE1"/>
<line x1="1464" y1="274.5" x2="-24" y2="274.5" stroke="#D5DAE1"/>
<line x1="1464" y1="298.5" x2="-24" y2="298.5" stroke="#D5DAE1"/>
<line x1="1464" y1="322.5" x2="-24" y2="322.5" stroke="#D5DAE1"/>
<line x1="24.5" y1="178" x2="24.5" y2="898" stroke="#D5DAE1"/>
<line x1="24.5" y1="178" x2="24.5" y2="898" stroke="#D5DAE1"/>
<line x1="48.5" y1="178" x2="48.5" y2="898" stroke="#D5DAE1"/>
<line x1="72.5" y1="178" x2="72.5" y2="898" stroke="#D5DAE1"/>
<line x1="96.5" y1="178" x2="96.5" y2="898" stroke="#D5DAE1"/>
<line x1="120.5" y1="178" x2="120.5" y2="898" stroke="#D5DAE1"/>
<line x1="144.5" y1="178" x2="144.5" y2="898" stroke="#D5DAE1"/>
<line x1="168.5" y1="178" x2="168.5" y2="898" stroke="#D5DAE1"/>
<line x1="192.5" y1="178" x2="192.5" y2="898" stroke="#D5DAE1"/>
<line x1="216.5" y1="178" x2="216.5" y2="898" stroke="#D5DAE1"/>
<line x1="240.5" y1="178" x2="240.5" y2="898" stroke="#D5DAE1"/>
<line x1="264.5" y1="178" x2="264.5" y2="898" stroke="#D5DAE1"/>
<line x1="288.5" y1="178" x2="288.5" y2="898" stroke="#D5DAE1"/>
<line x1="312.5" y1="178" x2="312.5" y2="898" stroke="#D5DAE1"/>
<line x1="336.5" y1="178" x2="336.5" y2="898" stroke="#D5DAE1"/>
<line x1="360.5" y1="178" x2="360.5" y2="898" stroke="#D5DAE1"/>
<line x1="384.5" y1="178" x2="384.5" y2="898" stroke="#D5DAE1"/>
<line x1="408.5" y1="178" x2="408.5" y2="898" stroke="#D5DAE1"/>
<line x1="432.5" y1="178" x2="432.5" y2="898" stroke="#D5DAE1"/>
<line x1="456.5" y1="178" x2="456.5" y2="898" stroke="#D5DAE1"/>
<line x1="480.5" y1="178" x2="480.5" y2="898" stroke="#D5DAE1"/>
<line x1="504.5" y1="178" x2="504.5" y2="898" stroke="#D5DAE1"/>
<line x1="528.5" y1="178" x2="528.5" y2="898" stroke="#D5DAE1"/>
<line x1="552.5" y1="178" x2="552.5" y2="898" stroke="#D5DAE1"/>
<line x1="576.5" y1="178" x2="576.5" y2="898" stroke="#D5DAE1"/>
<line x1="600.5" y1="178" x2="600.5" y2="898" stroke="#D5DAE1"/>
<line x1="624.5" y1="178" x2="624.5" y2="898" stroke="#D5DAE1"/>
<line x1="648.5" y1="178" x2="648.5" y2="898" stroke="#D5DAE1"/>
<line x1="672.5" y1="178" x2="672.5" y2="898" stroke="#D5DAE1"/>
<line x1="696.5" y1="178" x2="696.5" y2="898" stroke="#D5DAE1"/>
<line x1="720.5" y1="178" x2="720.5" y2="898" stroke="#D5DAE1"/>
<line x1="744.5" y1="178" x2="744.5" y2="898" stroke="#D5DAE1"/>
<line x1="768.5" y1="178" x2="768.5" y2="898" stroke="#D5DAE1"/>
<line x1="792.5" y1="178" x2="792.5" y2="898" stroke="#D5DAE1"/>
<line x1="816.5" y1="178" x2="816.5" y2="898" stroke="#D5DAE1"/>
<line x1="840.5" y1="178" x2="840.5" y2="898" stroke="#D5DAE1"/>
<line x1="864.5" y1="178" x2="864.5" y2="898" stroke="#D5DAE1"/>
<line x1="888.5" y1="178" x2="888.5" y2="898" stroke="#D5DAE1"/>
<line x1="912.5" y1="178" x2="912.5" y2="898" stroke="#D5DAE1"/>
<line x1="936.5" y1="178" x2="936.5" y2="898" stroke="#D5DAE1"/>
<line x1="960.5" y1="178" x2="960.5" y2="898" stroke="#D5DAE1"/>
<line x1="984.5" y1="178" x2="984.5" y2="898" stroke="#D5DAE1"/>
<line x1="1008.5" y1="178" x2="1008.5" y2="898" stroke="#D5DAE1"/>
<line x1="1032.5" y1="178" x2="1032.5" y2="898" stroke="#D5DAE1"/>
<line x1="1056.5" y1="178" x2="1056.5" y2="898" stroke="#D5DAE1"/>
<line x1="1080.5" y1="178" x2="1080.5" y2="898" stroke="#D5DAE1"/>
<line x1="1104.5" y1="178" x2="1104.5" y2="898" stroke="#D5DAE1"/>
<line x1="1128.5" y1="178" x2="1128.5" y2="898" stroke="#D5DAE1"/>
<line x1="1152.5" y1="178" x2="1152.5" y2="898" stroke="#D5DAE1"/>
<line x1="1176.5" y1="178" x2="1176.5" y2="898" stroke="#D5DAE1"/>
<line x1="1200.5" y1="178" x2="1200.5" y2="898" stroke="#D5DAE1"/>
<line x1="1224.5" y1="178" x2="1224.5" y2="898" stroke="#D5DAE1"/>
<line x1="1248.5" y1="178" x2="1248.5" y2="898" stroke="#D5DAE1"/>
<line x1="1272.5" y1="178" x2="1272.5" y2="898" stroke="#D5DAE1"/>
<line x1="1296.5" y1="178" x2="1296.5" y2="898" stroke="#D5DAE1"/>
<line x1="1320.5" y1="178" x2="1320.5" y2="898" stroke="#D5DAE1"/>
<line x1="1344.5" y1="178" x2="1344.5" y2="898" stroke="#D5DAE1"/>
<line x1="1368.5" y1="178" x2="1368.5" y2="898" stroke="#D5DAE1"/>
<line x1="1392.5" y1="178" x2="1392.5" y2="898" stroke="#D5DAE1"/>
<line x1="1416.5" y1="178" x2="1416.5" y2="898" stroke="#D5DAE1"/>
<line x1="1440.5" y1="178" x2="1440.5" y2="898" stroke="#D5DAE1"/>
<line x1="0.5" y1="-518" x2="0.499969" y2="202" stroke="#D5DAE1"/>
<line x1="1464" y1="10.5" x2="-24" y2="10.5" stroke="#D5DAE1"/>
<line x1="1464" y1="34.5" x2="-24" y2="34.5" stroke="#D5DAE1"/>
<line x1="1464" y1="58.5" x2="-24" y2="58.5" stroke="#D5DAE1"/>
<line x1="1464" y1="82.5" x2="-24" y2="82.5" stroke="#D5DAE1"/>
<line x1="1464" y1="106.5" x2="-24" y2="106.5" stroke="#D5DAE1"/>
<line x1="1464" y1="130.5" x2="-24" y2="130.5" stroke="#D5DAE1"/>
<line x1="1464" y1="154.5" x2="-24" y2="154.5" stroke="#D5DAE1"/>
<line x1="1464" y1="178.5" x2="-24" y2="178.5" stroke="#D5DAE1"/>
<line x1="24.5" y1="-518" x2="24.5" y2="202" stroke="#D5DAE1"/>
<line x1="24.5" y1="-518" x2="24.5" y2="202" stroke="#D5DAE1"/>
<line x1="48.5" y1="-518" x2="48.5" y2="202" stroke="#D5DAE1"/>
<line x1="72.5" y1="-518" x2="72.5" y2="202" stroke="#D5DAE1"/>
<line x1="96.5" y1="-518" x2="96.5" y2="202" stroke="#D5DAE1"/>
<line x1="120.5" y1="-518" x2="120.5" y2="202" stroke="#D5DAE1"/>
<line x1="144.5" y1="-518" x2="144.5" y2="202" stroke="#D5DAE1"/>
<line x1="168.5" y1="-518" x2="168.5" y2="202" stroke="#D5DAE1"/>
<line x1="192.5" y1="-518" x2="192.5" y2="202" stroke="#D5DAE1"/>
<line x1="216.5" y1="-518" x2="216.5" y2="202" stroke="#D5DAE1"/>
<line x1="240.5" y1="-518" x2="240.5" y2="202" stroke="#D5DAE1"/>
<line x1="264.5" y1="-518" x2="264.5" y2="202" stroke="#D5DAE1"/>
<line x1="288.5" y1="-518" x2="288.5" y2="202" stroke="#D5DAE1"/>
<line x1="312.5" y1="-518" x2="312.5" y2="202" stroke="#D5DAE1"/>
<line x1="336.5" y1="-518" x2="336.5" y2="202" stroke="#D5DAE1"/>
<line x1="360.5" y1="-518" x2="360.5" y2="202" stroke="#D5DAE1"/>
<line x1="384.5" y1="-518" x2="384.5" y2="202" stroke="#D5DAE1"/>
<line x1="408.5" y1="-518" x2="408.5" y2="202" stroke="#D5DAE1"/>
<line x1="432.5" y1="-518" x2="432.5" y2="202" stroke="#D5DAE1"/>
<line x1="456.5" y1="-518" x2="456.5" y2="202" stroke="#D5DAE1"/>
<line x1="480.5" y1="-518" x2="480.5" y2="202" stroke="#D5DAE1"/>
<line x1="504.5" y1="-518" x2="504.5" y2="202" stroke="#D5DAE1"/>
<line x1="528.5" y1="-518" x2="528.5" y2="202" stroke="#D5DAE1"/>
<line x1="552.5" y1="-518" x2="552.5" y2="202" stroke="#D5DAE1"/>
<line x1="576.5" y1="-518" x2="576.5" y2="202" stroke="#D5DAE1"/>
<line x1="600.5" y1="-518" x2="600.5" y2="202" stroke="#D5DAE1"/>
<line x1="624.5" y1="-518" x2="624.5" y2="202" stroke="#D5DAE1"/>
<line x1="648.5" y1="-518" x2="648.5" y2="202" stroke="#D5DAE1"/>
<line x1="672.5" y1="-518" x2="672.5" y2="202" stroke="#D5DAE1"/>
<line x1="696.5" y1="-518" x2="696.5" y2="202" stroke="#D5DAE1"/>
<line x1="720.5" y1="-518" x2="720.5" y2="202" stroke="#D5DAE1"/>
<line x1="744.5" y1="-518" x2="744.5" y2="202" stroke="#D5DAE1"/>
<line x1="768.5" y1="-518" x2="768.5" y2="202" stroke="#D5DAE1"/>
<line x1="792.5" y1="-518" x2="792.5" y2="202" stroke="#D5DAE1"/>
<line x1="816.5" y1="-518" x2="816.5" y2="202" stroke="#D5DAE1"/>
<line x1="840.5" y1="-518" x2="840.5" y2="202" stroke="#D5DAE1"/>
<line x1="864.5" y1="-518" x2="864.5" y2="202" stroke="#D5DAE1"/>
<line x1="888.5" y1="-518" x2="888.5" y2="202" stroke="#D5DAE1"/>
<line x1="912.5" y1="-518" x2="912.5" y2="202" stroke="#D5DAE1"/>
<line x1="936.5" y1="-518" x2="936.5" y2="202" stroke="#D5DAE1"/>
<line x1="960.5" y1="-518" x2="960.5" y2="202" stroke="#D5DAE1"/>
<line x1="984.5" y1="-518" x2="984.5" y2="202" stroke="#D5DAE1"/>
<line x1="1008.5" y1="-518" x2="1008.5" y2="202" stroke="#D5DAE1"/>
<line x1="1032.5" y1="-518" x2="1032.5" y2="202" stroke="#D5DAE1"/>
<line x1="1056.5" y1="-518" x2="1056.5" y2="202" stroke="#D5DAE1"/>
<line x1="1080.5" y1="-518" x2="1080.5" y2="202" stroke="#D5DAE1"/>
<line x1="1104.5" y1="-518" x2="1104.5" y2="202" stroke="#D5DAE1"/>
<line x1="1128.5" y1="-518" x2="1128.5" y2="202" stroke="#D5DAE1"/>
<line x1="1152.5" y1="-518" x2="1152.5" y2="202" stroke="#D5DAE1"/>
<line x1="1176.5" y1="-518" x2="1176.5" y2="202" stroke="#D5DAE1"/>
<line x1="1200.5" y1="-518" x2="1200.5" y2="202" stroke="#D5DAE1"/>
<line x1="1224.5" y1="-518" x2="1224.5" y2="202" stroke="#D5DAE1"/>
<line x1="1248.5" y1="-518" x2="1248.5" y2="202" stroke="#D5DAE1"/>
<line x1="1272.5" y1="-518" x2="1272.5" y2="202" stroke="#D5DAE1"/>
<line x1="1296.5" y1="-518" x2="1296.5" y2="202" stroke="#D5DAE1"/>
<line x1="1320.5" y1="-518" x2="1320.5" y2="202" stroke="#D5DAE1"/>
<line x1="1344.5" y1="-518" x2="1344.5" y2="202" stroke="#D5DAE1"/>
<line x1="1368.5" y1="-518" x2="1368.5" y2="202" stroke="#D5DAE1"/>
<line x1="1392.5" y1="-518" x2="1392.5" y2="202" stroke="#D5DAE1"/>
<line x1="1416.5" y1="-518" x2="1416.5" y2="202" stroke="#D5DAE1"/>
<line x1="1440.5" y1="-518" x2="1440.5" y2="202" stroke="#D5DAE1"/>
</g>
<rect width="1440" height="380" fill="url(#paint0_radial_175_1734)"/>
</g>
<defs>
<radialGradient id="paint0_radial_175_1734" cx="0" cy="0" r="1" gradientUnits="userSpaceOnUse" gradientTransform="translate(720 190) rotate(90) scale(190 720)">
<stop stop-color="#F7F8F9" stop-opacity="0"/>
<stop offset="1" stop-color="#F7F8F9"/>
</radialGradient>
<clipPath id="clip0_175_1734">
<rect width="1440" height="339" fill="white"/>
</clipPath>
</defs>
</svg>
