<svg width="461" height="363" viewBox="0 0 461 363" fill="none" xmlns="http://www.w3.org/2000/svg">
<g clip-path="url(#clip0_175_1153)">
<rect width="461" height="363" rx="16" fill="#F7F8F9"/>
<mask id="mask0_175_1153" style="mask-type:alpha" maskUnits="userSpaceOnUse" x="-1" y="0" width="462" height="363">
<rect x="-1" width="462" height="363" fill="#C4C4C4"/>
</mask>
<g mask="url(#mask0_175_1153)">
<g opacity="0.4">
<rect width="1440" height="1320" transform="translate(-150 -515)" fill="white"/>
<line x1="1314" y1="157.5" x2="-174" y2="157.5" stroke="#D5DAE1"/>
<line x1="1314" y1="181.5" x2="-174" y2="181.5" stroke="#D5DAE1"/>
<line x1="1314" y1="205.5" x2="-174" y2="205.5" stroke="#D5DAE1"/>
<line x1="1314" y1="229.5" x2="-174" y2="229.5" stroke="#D5DAE1"/>
<line x1="1314" y1="253.5" x2="-174" y2="253.5" stroke="#D5DAE1"/>
<line x1="1314" y1="277.5" x2="-174" y2="277.5" stroke="#D5DAE1"/>
<line x1="1314" y1="301.5" x2="-174" y2="301.5" stroke="#D5DAE1"/>
<line x1="1314" y1="325.5" x2="-174" y2="325.5" stroke="#D5DAE1"/>
<line x1="1314" y1="349.5" x2="-174" y2="349.5" stroke="#D5DAE1"/>
<line x1="18.5" y1="133" x2="18.5" y2="853" stroke="#D5DAE1"/>
<line x1="42.5" y1="133" x2="42.5" y2="853" stroke="#D5DAE1"/>
<line x1="66.5" y1="133" x2="66.5" y2="853" stroke="#D5DAE1"/>
<line x1="90.5" y1="133" x2="90.5" y2="853" stroke="#D5DAE1"/>
<line x1="114.5" y1="133" x2="114.5" y2="853" stroke="#D5DAE1"/>
<line x1="138.5" y1="133" x2="138.5" y2="853" stroke="#D5DAE1"/>
<line x1="162.5" y1="133" x2="162.5" y2="853" stroke="#D5DAE1"/>
<line x1="186.5" y1="133" x2="186.5" y2="853" stroke="#D5DAE1"/>
<line x1="210.5" y1="133" x2="210.5" y2="853" stroke="#D5DAE1"/>
<line x1="234.5" y1="133" x2="234.5" y2="853" stroke="#D5DAE1"/>
<line x1="258.5" y1="133" x2="258.5" y2="853" stroke="#D5DAE1"/>
<line x1="282.5" y1="133" x2="282.5" y2="853" stroke="#D5DAE1"/>
<line x1="306.5" y1="133" x2="306.5" y2="853" stroke="#D5DAE1"/>
<line x1="330.5" y1="133" x2="330.5" y2="853" stroke="#D5DAE1"/>
<line x1="354.5" y1="133" x2="354.5" y2="853" stroke="#D5DAE1"/>
<line x1="378.5" y1="133" x2="378.5" y2="853" stroke="#D5DAE1"/>
<line x1="402.5" y1="133" x2="402.5" y2="853" stroke="#D5DAE1"/>
<line x1="426.5" y1="133" x2="426.5" y2="853" stroke="#D5DAE1"/>
<line x1="450.5" y1="133" x2="450.5" y2="853" stroke="#D5DAE1"/>
<line x1="1314" y1="13.5" x2="-174" y2="13.5" stroke="#D5DAE1"/>
<line x1="1314" y1="37.5" x2="-174" y2="37.5" stroke="#D5DAE1"/>
<line x1="1314" y1="61.5" x2="-174" y2="61.5" stroke="#D5DAE1"/>
<line x1="1314" y1="85.5" x2="-174" y2="85.5" stroke="#D5DAE1"/>
<line x1="1314" y1="109.5" x2="-174" y2="109.5" stroke="#D5DAE1"/>
<line x1="1314" y1="133.5" x2="-174" y2="133.5" stroke="#D5DAE1"/>
<line x1="18.5" y1="-563" x2="18.5" y2="157" stroke="#D5DAE1"/>
<line x1="42.5" y1="-563" x2="42.5" y2="157" stroke="#D5DAE1"/>
<line x1="66.5" y1="-563" x2="66.5" y2="157" stroke="#D5DAE1"/>
<line x1="90.5" y1="-563" x2="90.5" y2="157" stroke="#D5DAE1"/>
<line x1="114.5" y1="-563" x2="114.5" y2="157" stroke="#D5DAE1"/>
<line x1="138.5" y1="-563" x2="138.5" y2="157" stroke="#D5DAE1"/>
<line x1="162.5" y1="-563" x2="162.5" y2="157" stroke="#D5DAE1"/>
<line x1="186.5" y1="-563" x2="186.5" y2="157" stroke="#D5DAE1"/>
<line x1="210.5" y1="-563" x2="210.5" y2="157" stroke="#D5DAE1"/>
<line x1="234.5" y1="-563" x2="234.5" y2="157" stroke="#D5DAE1"/>
<line x1="258.5" y1="-563" x2="258.5" y2="157" stroke="#D5DAE1"/>
<line x1="282.5" y1="-563" x2="282.5" y2="157" stroke="#D5DAE1"/>
<line x1="306.5" y1="-563" x2="306.5" y2="157" stroke="#D5DAE1"/>
<line x1="330.5" y1="-563" x2="330.5" y2="157" stroke="#D5DAE1"/>
<line x1="354.5" y1="-563" x2="354.5" y2="157" stroke="#D5DAE1"/>
<line x1="378.5" y1="-563" x2="378.5" y2="157" stroke="#D5DAE1"/>
<line x1="402.5" y1="-563" x2="402.5" y2="157" stroke="#D5DAE1"/>
<line x1="426.5" y1="-563" x2="426.5" y2="157" stroke="#D5DAE1"/>
<line x1="450.5" y1="-563" x2="450.5" y2="157" stroke="#D5DAE1"/>
</g>
</g>
<rect width="461" height="363" fill="url(#paint0_radial_175_1153)"/>
</g>
<defs>
<radialGradient id="paint0_radial_175_1153" cx="0" cy="0" r="1" gradientUnits="userSpaceOnUse" gradientTransform="translate(230.5 181.5) rotate(90) scale(181.5 230.5)">
<stop stop-color="white" stop-opacity="0"/>
<stop offset="1" stop-color="white"/>
</radialGradient>
<clipPath id="clip0_175_1153">
<rect width="461" height="363" rx="16" fill="white"/>
</clipPath>
</defs>
</svg>
