<svg width="550" height="572" viewBox="0 0 550 572" fill="none" xmlns="http://www.w3.org/2000/svg">
<path d="M331.492 531.905C439.665 531.905 527.356 518.375 527.356 501.685C527.356 484.995 439.665 471.466 331.492 471.466C223.32 471.466 135.628 484.995 135.628 501.685C135.628 518.375 223.32 531.905 331.492 531.905Z" fill="#FFC1EB"/>
<path d="M214.626 440.832L213.605 443.036C212.959 444.43 213.566 446.083 214.96 446.729L267.802 471.213C269.196 471.859 270.85 471.252 271.496 469.858L272.517 467.655C273.163 466.261 272.556 464.607 271.162 463.961L218.32 439.477C216.926 438.831 215.272 439.438 214.626 440.832Z" fill="black"/>
<path d="M215.741 422.645L242.037 429.565L277.558 446.028L271.496 459.12C270.939 460.317 269.931 461.244 268.692 461.698C267.453 462.152 266.085 462.096 264.887 461.542L218.129 439.883L215.741 422.645Z" fill="white"/>
<path d="M266.97 463.376C266.05 463.376 265.14 463.176 264.306 462.788L216.862 440.817L214.094 420.749L242.632 428.285L279.398 445.384L272.748 459.736C272.23 460.829 271.412 461.752 270.389 462.396C269.365 463.041 268.179 463.381 266.97 463.376ZM219.402 438.941L265.468 460.29C265.898 460.492 266.364 460.607 266.839 460.628C267.313 460.649 267.787 460.575 268.233 460.412C268.679 460.248 269.088 459.998 269.437 459.675C269.785 459.353 270.067 458.964 270.264 458.532L275.752 446.692L241.567 430.852L217.395 424.492L219.402 438.941Z" fill="black"/>
<path d="M221.824 449.896L191.916 436.056C190.816 435.546 189.964 434.62 189.546 433.483C189.128 432.345 189.179 431.087 189.688 429.987C191.781 425.473 195.581 421.975 200.252 420.262C204.924 418.549 210.084 418.762 214.6 420.853C216.835 421.888 218.845 423.354 220.514 425.167C222.183 426.98 223.479 429.103 224.327 431.417C225.175 433.73 225.559 436.188 225.458 438.65C225.356 441.111 224.77 443.529 223.734 445.765L221.824 449.896Z" fill="black"/>
<path d="M457.222 158.128L441.88 159.062C434.87 159.488 427.978 157.112 422.72 152.457C417.462 147.803 414.268 141.25 413.84 134.24L412.975 119.978C412.788 116.893 413.21 113.8 414.218 110.878C415.226 107.956 416.801 105.261 418.851 102.948C420.901 100.634 423.386 98.7474 426.166 97.395C428.946 96.0426 431.964 95.2512 435.05 95.0659L447.008 94.3393C455.66 93.8207 464.164 96.7582 470.652 102.506C477.14 108.255 481.08 116.343 481.608 124.995L481.926 130.254C482.346 137.226 479.979 144.08 475.346 149.307C470.714 154.535 464.194 157.707 457.222 158.128Z" fill="black"/>
<path d="M195.272 503.512C194.942 503.517 194.622 503.404 194.368 503.193C194.114 502.982 193.944 502.688 193.888 502.363L156.776 289.22L100.17 502.253C100.068 502.595 99.8361 502.885 99.5244 503.061C99.2126 503.237 98.8448 503.285 98.4982 503.196C98.1516 503.106 97.8532 502.886 97.6657 502.581C97.4781 502.276 97.416 501.91 97.4923 501.561L157.33 276.322L196.635 501.913C196.698 502.272 196.617 502.641 196.41 502.94C196.202 503.239 195.886 503.445 195.528 503.512C195.443 503.52 195.357 503.52 195.272 503.512Z" fill="black"/>
<path d="M410.837 263.506H130.598C127.238 263.506 124.515 266.229 124.515 269.588V276.688C124.515 280.048 127.238 282.771 130.598 282.771H410.837C414.196 282.771 416.919 280.048 416.919 276.688V269.588C416.919 266.229 414.196 263.506 410.837 263.506Z" fill="black"/>
<path d="M356.764 102.581H180.65C173.304 102.581 167.35 108.536 167.35 115.881V224.726C167.35 232.072 173.304 238.026 180.65 238.026H356.764C364.109 238.026 370.064 232.072 370.064 224.726V115.881C370.064 108.536 364.109 102.581 356.764 102.581Z" fill="black"/>
<path d="M346.509 114.269H190.905C185.307 114.269 180.768 118.808 180.768 124.407V218.927C180.768 224.526 185.307 229.065 190.905 229.065H346.509C352.108 229.065 356.646 224.526 356.646 218.927V124.407C356.646 118.808 352.108 114.269 346.509 114.269Z" fill="white"/>
<path d="M280.983 133.451H236.82C232.898 133.451 229.72 136.63 229.72 140.551V206.381C229.72 210.302 232.898 213.481 236.82 213.481H280.983C284.904 213.481 288.083 210.302 288.083 206.381V140.551C288.083 136.63 284.904 133.451 280.983 133.451Z" fill="#64E8FF"/>
<path d="M213.914 131.278H198.324C196.684 131.278 195.355 132.607 195.355 134.247V149.838C195.355 151.477 196.684 152.806 198.324 152.806H213.914C215.554 152.806 216.883 151.477 216.883 149.838V134.247C216.883 132.607 215.554 131.278 213.914 131.278Z" fill="#64E8FF"/>
<path d="M213.34 162.93H198.898C196.941 162.93 195.355 164.517 195.355 166.473V180.915C195.355 182.872 196.941 184.458 198.898 184.458H213.34C215.297 184.458 216.883 182.872 216.883 180.915V166.473C216.883 164.517 215.297 162.93 213.34 162.93Z" fill="#FFC1EB"/>
<path d="M213.299 194.576H198.94C196.96 194.576 195.355 196.18 195.355 198.16V212.519C195.355 214.499 196.96 216.104 198.94 216.104H213.299C215.278 216.104 216.883 214.499 216.883 212.519V198.16C216.883 196.18 215.278 194.576 213.299 194.576Z" fill="#FFBB45"/>
<path d="M345.74 136.399H299.543C299.176 136.399 298.823 136.253 298.564 135.994C298.304 135.734 298.159 135.382 298.159 135.015C298.159 134.648 298.304 134.296 298.564 134.036C298.823 133.777 299.176 133.631 299.543 133.631H345.74C346.108 133.631 346.46 133.777 346.719 134.036C346.979 134.296 347.124 134.648 347.124 135.015C347.124 135.382 346.979 135.734 346.719 135.994C346.46 136.253 346.108 136.399 345.74 136.399Z" fill="black"/>
<path d="M345.74 149.208H299.543C299.176 149.208 298.823 149.062 298.564 148.803C298.304 148.543 298.159 148.191 298.159 147.824C298.159 147.457 298.304 147.105 298.564 146.845C298.823 146.586 299.176 146.44 299.543 146.44H345.74C346.108 146.44 346.46 146.586 346.719 146.845C346.979 147.105 347.124 147.457 347.124 147.824C347.124 148.191 346.979 148.543 346.719 148.803C346.46 149.062 346.108 149.208 345.74 149.208Z" fill="black"/>
<path d="M331.395 161.955H299.563C299.196 161.955 298.844 161.809 298.585 161.549C298.325 161.29 298.179 160.938 298.179 160.571C298.179 160.204 298.325 159.852 298.585 159.592C298.844 159.332 299.196 159.187 299.563 159.187H331.395C331.762 159.187 332.114 159.332 332.374 159.592C332.633 159.852 332.779 160.204 332.779 160.571C332.779 160.938 332.633 161.29 332.374 161.549C332.114 161.809 331.762 161.955 331.395 161.955Z" fill="black"/>
<path d="M323.596 171.587H304.345C300.955 171.587 298.207 174.335 298.207 177.725C298.207 181.115 300.955 183.863 304.345 183.863H323.596C326.986 183.863 329.735 181.115 329.735 177.725C329.735 174.335 326.986 171.587 323.596 171.587Z" fill="#FFC1EB"/>
<path d="M342.55 183.497C345.734 183.497 348.315 180.916 348.315 177.732C348.315 174.549 345.734 171.968 342.55 171.968C339.367 171.968 336.786 174.549 336.786 177.732C336.786 180.916 339.367 183.497 342.55 183.497Z" fill="#FB6D6D"/>
<path d="M270.534 263.506H222.315L242.058 238.026H292.256L270.534 263.506Z" fill="black"/>
<path d="M479.04 352.767C478.926 352.767 478.812 352.753 478.701 352.725C478.525 352.681 478.359 352.602 478.213 352.493C478.067 352.385 477.944 352.249 477.851 352.092C477.758 351.936 477.696 351.763 477.67 351.583C477.644 351.403 477.653 351.22 477.698 351.044L495.911 279.076C496.003 278.72 496.233 278.415 496.549 278.228C496.866 278.041 497.244 277.987 497.6 278.079C497.956 278.171 498.261 278.4 498.448 278.717C498.635 279.034 498.688 279.412 498.596 279.768L480.383 351.736C480.305 352.032 480.131 352.294 479.888 352.48C479.645 352.667 479.347 352.768 479.04 352.767Z" fill="black"/>
<path d="M379.012 500.488C378.95 500.495 378.887 500.495 378.825 500.488C378.645 500.464 378.471 500.405 378.313 500.314C378.155 500.222 378.017 500.101 377.907 499.956C377.796 499.812 377.715 499.647 377.669 499.471C377.622 499.295 377.61 499.111 377.635 498.931L396.27 361.354C396.294 361.173 396.354 360.997 396.446 360.839C396.538 360.68 396.66 360.541 396.805 360.43C396.951 360.318 397.117 360.236 397.294 360.189C397.471 360.142 397.656 360.13 397.838 360.154C398.019 360.178 398.195 360.238 398.353 360.329C398.512 360.421 398.651 360.543 398.763 360.689C398.874 360.834 398.956 361 399.003 361.178C399.05 361.355 399.062 361.539 399.038 361.721L380.382 499.291C380.337 499.622 380.173 499.926 379.921 500.146C379.669 500.366 379.346 500.488 379.012 500.488Z" fill="black"/>
<path d="M499.369 204.908L485.332 266.743C484.148 271.957 487.415 277.143 492.629 278.327L503.197 280.726C508.411 281.909 513.597 278.642 514.781 273.428L528.818 211.593C530.002 206.379 526.735 201.193 521.521 200.009L510.953 197.61C505.739 196.427 500.552 199.694 499.369 204.908Z" fill="#C7B8F8"/>
<path d="M480.016 500.488C479.68 500.491 479.355 500.372 479.1 500.153C478.845 499.934 478.679 499.63 478.632 499.298L459.18 361.714C459.129 361.347 459.225 360.975 459.448 360.679C459.672 360.383 460.003 360.188 460.37 360.136C460.737 360.085 461.11 360.182 461.406 360.405C461.702 360.628 461.897 360.96 461.948 361.327L481.393 498.91C481.444 499.274 481.349 499.643 481.129 499.936C480.908 500.229 480.58 500.423 480.217 500.474C480.151 500.486 480.083 500.491 480.016 500.488Z" fill="black"/>
<path d="M473.574 454.885H385.184C384.817 454.885 384.465 454.739 384.206 454.48C383.946 454.22 383.8 453.868 383.8 453.501C383.8 453.134 383.946 452.782 384.206 452.523C384.465 452.263 384.817 452.117 385.184 452.117H473.574C473.941 452.117 474.293 452.263 474.552 452.523C474.812 452.782 474.958 453.134 474.958 453.501C474.958 453.868 474.812 454.22 474.552 454.48C474.293 454.739 473.941 454.885 473.574 454.885Z" fill="black"/>
<path d="M472.349 329.052H388.575C383.294 329.052 379.012 333.334 379.012 338.615V351.957C379.012 357.239 383.294 361.521 388.575 361.521H472.349C477.631 361.521 481.912 357.239 481.912 351.957V338.615C481.912 333.334 477.631 329.052 472.349 329.052Z" fill="#C7B8F8"/>
<path d="M484.459 118.898C495.79 118.898 504.976 109.712 504.976 98.3806C504.976 87.0489 495.79 77.8628 484.459 77.8628C473.127 77.8628 463.941 87.0489 463.941 98.3806C463.941 109.712 473.127 118.898 484.459 118.898Z" fill="black"/>
<path d="M522.131 107.397C537.342 107.397 549.673 95.0666 549.673 79.8558C549.673 64.645 537.342 52.3142 522.131 52.3142C506.92 52.3142 494.59 64.645 494.59 79.8558C494.59 95.0666 506.92 107.397 522.131 107.397Z" fill="black"/>
<path d="M471.055 137.216C471.055 134.83 470.107 132.542 468.42 130.855C466.733 129.167 464.445 128.22 462.059 128.22C461.637 128.224 461.216 128.256 460.799 128.317L459.076 104.706L425.493 108.311C422.044 108.678 418.853 110.309 416.534 112.888C414.216 115.468 412.933 118.814 412.934 122.282V126.081C412.964 130.484 411.74 134.805 409.404 138.537L409.342 138.627V138.662C409.087 139.046 408.917 139.481 408.844 139.936C408.77 140.392 408.794 140.857 408.915 141.303C409.035 141.748 409.249 142.162 409.542 142.519C409.836 142.875 410.201 143.164 410.615 143.368L412.954 144.516V153.415C412.954 155.184 413.337 156.933 414.077 158.539C414.816 160.146 415.895 161.574 417.24 162.724C418.584 163.874 420.161 164.72 421.863 165.202C423.565 165.684 425.351 165.792 427.099 165.518L435.721 164.176L437.451 178.964L464.903 175.725L463.041 159.941H463.124L462.121 146.205C464.495 146.188 466.766 145.234 468.439 143.55C470.113 141.867 471.053 139.59 471.055 137.216Z" fill="white"/>
<path d="M436.24 180.5L434.503 165.816L427.306 166.937C425.362 167.241 423.374 167.12 421.48 166.582C419.587 166.045 417.832 165.103 416.336 163.823C414.841 162.543 413.641 160.954 412.818 159.166C411.995 157.378 411.57 155.432 411.57 153.464V145.416L409.999 144.648C409.415 144.363 408.897 143.957 408.481 143.457C408.064 142.957 407.759 142.375 407.584 141.748C407.411 141.108 407.373 140.438 407.475 139.783C407.576 139.127 407.814 138.5 408.173 137.942L408.249 137.825C410.453 134.312 411.605 130.242 411.57 126.095V122.296C411.563 118.486 412.968 114.808 415.514 111.973C418.06 109.139 421.566 107.348 425.355 106.948L460.363 103.19L462.093 126.849C464.678 126.902 467.151 127.917 469.027 129.696C470.903 131.476 472.047 133.891 472.236 136.47C472.425 139.049 471.644 141.605 470.047 143.638C468.45 145.672 466.152 147.036 463.602 147.464L464.591 161.103L466.46 176.936L436.24 180.5ZM436.932 162.619L438.676 177.428L463.38 174.514L461.526 158.785H461.664L460.647 144.841H462.128C464.147 144.836 466.081 144.029 467.504 142.597C468.928 141.166 469.725 139.228 469.719 137.209C469.714 135.19 468.906 133.256 467.475 131.832C466.043 130.409 464.105 129.612 462.086 129.617C461.73 129.621 461.374 129.649 461.021 129.701L459.554 129.908L457.796 106.249L425.632 109.709C422.522 110.037 419.645 111.506 417.555 113.832C415.466 116.158 414.312 119.176 414.318 122.303V126.102C414.352 130.776 413.048 135.362 410.56 139.319L410.491 139.43C410.339 139.661 410.238 139.922 410.194 140.195C410.149 140.468 410.164 140.747 410.235 141.015C410.303 141.265 410.424 141.498 410.59 141.697C410.756 141.897 410.963 142.058 411.197 142.17L414.318 143.693V153.457C414.318 155.025 414.658 156.575 415.314 158C415.969 159.425 416.926 160.69 418.117 161.711C419.308 162.731 420.706 163.481 422.215 163.911C423.723 164.34 425.307 164.437 426.857 164.197L436.932 162.619Z" fill="black"/>
<path d="M421.812 154.862C421.459 154.862 421.108 154.832 420.76 154.772C419.423 154.54 418.183 153.925 417.189 153C416.914 152.752 416.749 152.405 416.729 152.036C416.71 151.666 416.838 151.303 417.086 151.028C417.333 150.753 417.68 150.587 418.05 150.568C418.42 150.548 418.783 150.676 419.058 150.924C419.659 151.481 420.405 151.858 421.21 152.011C423.77 152.433 425.784 149.935 425.805 149.935C426.036 149.662 426.364 149.489 426.719 149.453C427.075 149.416 427.431 149.519 427.712 149.739C427.994 149.959 428.18 150.279 428.23 150.633C428.281 150.987 428.193 151.347 427.985 151.637C427.839 151.796 425.397 154.862 421.812 154.862Z" fill="black"/>
<path d="M427.479 136.102C428.683 136.102 429.659 135.126 429.659 133.922C429.659 132.718 428.683 131.742 427.479 131.742C426.276 131.742 425.3 132.718 425.3 133.922C425.3 135.126 426.276 136.102 427.479 136.102Z" fill="black"/>
<path d="M461.145 141.887C460.409 141.887 459.689 141.668 459.077 141.259C458.465 140.85 457.988 140.269 457.706 139.588C457.424 138.908 457.35 138.16 457.494 137.437C457.638 136.715 457.992 136.052 458.513 135.531C459.033 135.011 459.697 134.656 460.419 134.512C461.141 134.369 461.89 134.442 462.57 134.724C463.25 135.006 463.832 135.483 464.241 136.095C464.65 136.708 464.868 137.427 464.868 138.164C464.868 139.151 464.476 140.098 463.778 140.796C463.08 141.494 462.133 141.887 461.145 141.887ZM461.145 137.209C460.957 137.209 460.772 137.265 460.615 137.37C460.458 137.475 460.335 137.624 460.263 137.798C460.191 137.973 460.172 138.165 460.209 138.35C460.246 138.535 460.337 138.705 460.47 138.839C460.604 138.973 460.774 139.063 460.959 139.1C461.144 139.137 461.336 139.118 461.511 139.046C461.685 138.974 461.834 138.851 461.939 138.694C462.044 138.537 462.1 138.353 462.1 138.164C462.1 137.91 462 137.668 461.821 137.488C461.642 137.309 461.399 137.209 461.145 137.209Z" fill="black"/>
<path d="M438.863 175.227L480.978 173.317C487.277 172.965 493.461 175.117 498.181 179.303C504.25 184.839 508.997 195.005 502.389 213.481L493.088 230.816L440.496 224.449L431.41 242.123L398.402 245.894C397.585 245.984 395.059 241.638 394.706 241.092C392.079 237.088 390.368 232.554 389.696 227.812C387.966 214.304 398 203.454 405.771 193.579C414.02 183.047 424.981 175.857 438.863 175.227Z" fill="#FFC1EB"/>
<path d="M458.889 140.157C458.565 140.163 458.248 140.055 457.995 139.851C457.742 139.647 457.569 139.361 457.505 139.042C457.318 138.111 457.377 137.147 457.678 136.246C457.979 135.345 458.511 134.539 459.222 133.908C459.909 133.334 460.723 132.931 461.596 132.732C462.469 132.534 463.377 132.545 464.245 132.766C464.421 132.815 464.585 132.897 464.728 133.009C464.872 133.121 464.992 133.261 465.081 133.419C465.171 133.577 465.229 133.752 465.251 133.933C465.273 134.113 465.259 134.296 465.211 134.472C465.162 134.647 465.079 134.811 464.967 134.955C464.855 135.098 464.716 135.218 464.558 135.308C464.399 135.397 464.225 135.455 464.044 135.477C463.864 135.499 463.68 135.486 463.505 135.437C463.081 135.334 462.639 135.33 462.213 135.425C461.787 135.52 461.389 135.711 461.048 135.984C460.703 136.294 460.445 136.689 460.299 137.129C460.154 137.57 460.126 138.041 460.218 138.496C460.254 138.674 460.255 138.857 460.221 139.036C460.186 139.214 460.117 139.384 460.017 139.536C459.916 139.688 459.787 139.818 459.637 139.92C459.486 140.022 459.317 140.093 459.138 140.129C459.056 140.143 458.973 140.153 458.889 140.157Z" fill="black"/>
<path d="M425.507 108.325C425.507 108.325 425.058 136.205 461.083 128.289L459.09 104.719L425.507 108.325Z" fill="black"/>
<path d="M427.985 146.032C422.269 146.032 417.605 140.641 417.605 134.005C417.605 127.368 422.262 121.978 427.985 121.978C433.707 121.978 438.365 127.375 438.365 134.005C438.365 140.634 433.707 146.032 427.985 146.032ZM427.985 124.746C423.791 124.746 420.373 128.898 420.373 134.005C420.373 139.112 423.784 143.264 427.985 143.264C432.185 143.264 435.597 139.112 435.597 134.005C435.597 128.898 432.192 124.746 427.985 124.746Z" fill="black"/>
<path d="M475.401 291.684H422.504V256.572H471.38C474.833 267.936 476.205 279.832 475.428 291.684H475.401Z" fill="black"/>
<path d="M342.045 263.506H314.794C313.276 263.508 311.778 263.158 310.419 262.481C309.06 261.805 307.877 260.822 306.963 259.61C306.049 258.397 305.43 256.989 305.155 255.496C304.88 254.003 304.955 252.467 305.376 251.008C305.947 249.048 307.139 247.327 308.773 246.103C310.406 244.878 312.393 244.218 314.434 244.22H342.398C344.367 244.219 346.286 244.834 347.887 245.98C349.488 247.125 350.69 248.743 351.325 250.607C351.822 252.079 351.961 253.648 351.731 255.184C351.501 256.72 350.907 258.18 350 259.441C349.092 260.702 347.898 261.729 346.514 262.435C345.131 263.142 343.599 263.509 342.045 263.506Z" fill="#F3EAD6"/>
<path d="M439.679 224.449L430.725 242.123L379.15 247.258C377.222 247.45 375.279 247.077 373.559 246.185L351.228 234.587C351.228 234.587 343.429 230.22 332.157 234.926L313.168 243.541C312.371 243.886 311.701 244.472 311.255 245.217C310.808 245.962 310.606 246.828 310.677 247.693V247.735C310.724 248.089 310.847 248.43 311.037 248.732C311.227 249.035 311.479 249.294 311.778 249.491C312.076 249.687 312.414 249.818 312.767 249.873C313.12 249.928 313.481 249.907 313.825 249.811L333.928 244.171L324.51 252.69C323.123 253.932 322.156 255.573 321.742 257.388C321.105 260.343 321.873 264.35 329.527 266.177C329.527 266.177 333.049 272.093 339.042 268.945C339.077 268.945 339.928 269.699 339.997 269.748C340.932 270.469 341.933 271.102 342.986 271.637C346.284 273.276 349.894 274.194 353.574 274.329C355.858 274.439 358.003 273.443 358.3 270.965L360.224 271.166C366.221 271.78 372.193 272.661 378.14 273.81L423.625 282.605C436.081 284.369 444.994 281.705 449.54 279.906C462.827 274.654 471.435 265.312 478.342 253.444L491.49 230.809L439.679 224.449Z" fill="white"/>
<path d="M431.756 284.584C428.977 284.578 426.203 284.377 423.452 283.982H423.383L377.87 275.152C372.002 274.017 366.016 273.138 360.079 272.522L359.331 272.446C358.487 274.571 356.287 275.837 353.498 275.699C349.62 275.551 345.818 274.581 342.343 272.855C341.217 272.277 340.145 271.601 339.139 270.834L338.869 270.599L338.82 270.557C333.976 272.585 330.254 269.651 328.655 267.367C320.026 265.104 319.756 259.969 320.351 257.077C320.828 254.972 321.956 253.071 323.576 251.645L328.641 247.064L314.151 251.112C313.618 251.261 313.06 251.295 312.513 251.212C311.967 251.128 311.444 250.928 310.981 250.626C310.518 250.324 310.125 249.927 309.827 249.46C309.53 248.994 309.336 248.469 309.258 247.922C309.134 246.757 309.383 245.582 309.968 244.568C310.554 243.553 311.447 242.75 312.518 242.275L331.582 233.646C343.381 228.719 351.56 233.168 351.906 233.362L374.168 244.932C375.657 245.709 377.341 246.032 379.012 245.86L429.825 240.801L438.877 222.941L493.78 229.694L479.546 254.15C471.601 267.789 462.246 276.384 450.059 281.2C444.227 283.475 438.016 284.623 431.756 284.584ZM423.847 281.242C432.912 282.522 441.389 281.643 449.028 278.626C460.751 273.989 469.422 266.011 477.137 252.759L489.261 231.93L440.496 225.944L431.638 243.424L379.309 248.635C377.113 248.854 374.901 248.428 372.943 247.41L350.64 235.819C350.308 235.639 343.194 231.833 332.738 236.206L313.735 244.801C313.207 245.022 312.76 245.402 312.456 245.887C312.153 246.373 312.007 246.941 312.04 247.513C312.06 247.674 312.115 247.829 312.2 247.967C312.284 248.105 312.398 248.223 312.532 248.313C312.667 248.404 312.819 248.464 312.979 248.491C313.138 248.518 313.302 248.51 313.459 248.468L339.229 241.244L325.465 253.7C324.276 254.737 323.443 256.122 323.084 257.658C322.33 261.153 324.6 263.561 329.838 264.807L330.406 264.945L330.703 265.45C331.001 265.935 333.734 270.149 338.391 267.699C339.263 267.242 339.838 267.754 340.71 268.53L340.869 268.675C341.739 269.33 342.665 269.907 343.637 270.398C346.761 271.94 350.176 272.803 353.657 272.931C354.563 272.972 356.695 272.861 356.937 270.785L357.096 269.401L360.383 269.741C366.397 270.356 372.465 271.249 378.417 272.405L423.847 281.242Z" fill="black"/>
<path d="M361.041 491.513H302.802C301.265 491.513 300.02 492.758 300.02 494.295V496.724C300.02 498.26 301.265 499.505 302.802 499.505H361.041C362.577 499.505 363.822 498.26 363.822 496.724V494.295C363.822 492.758 362.577 491.513 361.041 491.513Z" fill="black"/>
<path d="M293.384 477.334L320.15 472.559H359.304V486.994C359.304 488.314 358.78 489.579 357.846 490.512C356.913 491.445 355.648 491.969 354.328 491.969H302.788L293.384 477.334Z" fill="white"/>
<path d="M354.328 493.353H302.048L291.093 476.337L320.157 471.175H360.695V486.994C360.693 488.681 360.021 490.299 358.828 491.491C357.634 492.684 356.015 493.353 354.328 493.353ZM303.556 490.585H354.328C355.28 490.584 356.193 490.205 356.866 489.531C357.539 488.858 357.918 487.946 357.92 486.994V473.943H320.275L295.667 478.33L303.556 490.585Z" fill="black"/>
<path d="M260.182 445.259L244.093 433.495C241.612 431.687 239.512 429.407 237.913 426.787C236.313 424.166 235.245 421.256 234.77 418.223C234.296 415.19 234.423 412.094 235.145 409.11C235.867 406.126 237.17 403.313 238.979 400.833L309.078 304.7C311.731 301.061 315.074 297.981 318.918 295.634C322.761 293.288 327.029 291.722 331.478 291.025C335.927 290.329 340.469 290.515 344.846 291.575C349.223 292.634 353.348 294.545 356.985 297.199C360.624 299.852 363.705 303.195 366.051 307.038C368.398 310.882 369.964 315.15 370.661 319.599C371.357 324.047 371.171 328.59 370.111 332.967C369.052 337.343 367.141 341.468 364.487 345.106L295.508 439.73C291.557 445.148 285.615 448.774 278.99 449.81C272.365 450.847 265.6 449.21 260.182 445.259Z" fill="black"/>
<path d="M427.445 340.892H304.961V316.824C304.963 307.564 308.642 298.685 315.191 292.138C321.739 285.591 330.62 281.913 339.879 281.913H475.401V292.936C475.401 305.655 470.348 317.853 461.355 326.846C452.361 335.84 440.164 340.892 427.445 340.892Z" fill="black"/>
<path d="M348.28 475.943H328.392C322.192 475.943 316.245 473.48 311.86 469.096C307.475 464.713 305.011 458.767 305.009 452.567V337.937H373.586V450.657C373.587 453.98 372.933 457.27 371.662 460.339C370.39 463.409 368.526 466.198 366.175 468.546C363.825 470.895 361.035 472.757 357.964 474.026C354.893 475.295 351.603 475.946 348.28 475.943Z" fill="black"/>
<path d="M268.402 445.744C268.149 445.743 267.901 445.673 267.686 445.541C267.47 445.409 267.294 445.221 267.178 444.996C267.061 444.771 267.009 444.519 267.026 444.266C267.043 444.014 267.129 443.771 267.275 443.564L303.854 391.664C304.066 391.364 304.388 391.16 304.75 391.098C305.112 391.036 305.484 391.12 305.784 391.332C306.084 391.544 306.288 391.866 306.35 392.228C306.413 392.59 306.328 392.962 306.116 393.263L269.537 445.162C269.409 445.343 269.238 445.49 269.041 445.592C268.843 445.693 268.624 445.745 268.402 445.744Z" fill="white"/>
<path d="M351.851 477.071C351.484 477.071 351.132 476.925 350.872 476.665C350.613 476.406 350.467 476.054 350.467 475.687V335.086C350.47 329.88 352.54 324.888 356.221 321.206C359.901 317.524 364.893 315.453 370.099 315.447H423.923C429.577 315.442 434.999 313.193 438.997 309.194C442.996 305.196 445.245 299.774 445.25 294.12V281.913C445.25 281.546 445.396 281.194 445.655 280.934C445.915 280.675 446.267 280.529 446.634 280.529C447.001 280.529 447.353 280.675 447.613 280.934C447.872 281.194 448.018 281.546 448.018 281.913V294.12C448.011 300.508 445.47 306.633 440.953 311.15C436.435 315.667 430.311 318.208 423.923 318.215H370.099C365.627 318.221 361.339 320 358.178 323.163C355.016 326.326 353.238 330.614 353.235 335.086V475.687C353.235 476.054 353.089 476.406 352.829 476.665C352.57 476.925 352.218 477.071 351.851 477.071Z" fill="white"/>
<path d="M329.513 267.54C329.215 267.538 328.925 267.441 328.687 267.261C328.449 267.082 328.275 266.83 328.191 266.543C324.98 255.548 336.765 248.752 336.89 248.683C337.048 248.592 337.222 248.533 337.403 248.51C337.584 248.486 337.768 248.499 337.944 248.546C338.12 248.594 338.285 248.676 338.429 248.787C338.574 248.898 338.695 249.037 338.786 249.195C338.877 249.353 338.936 249.528 338.959 249.709C338.983 249.889 338.97 250.073 338.923 250.249C338.875 250.425 338.793 250.59 338.682 250.735C338.571 250.879 338.432 251 338.274 251.091C336.47 252.204 334.849 253.591 333.471 255.202C330.703 258.537 329.797 262.087 330.876 265.768C330.979 266.121 330.938 266.5 330.761 266.821C330.585 267.143 330.288 267.382 329.935 267.485C329.798 267.522 329.656 267.541 329.513 267.54Z" fill="black"/>
<path d="M339.035 270.308C338.809 270.307 338.588 270.251 338.389 270.145C338.19 270.039 338.019 269.886 337.893 269.699C337.145 268.684 336.627 267.518 336.374 266.283C336.12 265.047 336.138 263.772 336.426 262.544C337.81 256.717 344.848 252.752 345.152 252.586C345.311 252.485 345.49 252.417 345.676 252.387C345.862 252.357 346.053 252.366 346.235 252.412C346.418 252.458 346.59 252.542 346.739 252.657C346.889 252.772 347.013 252.916 347.105 253.081C347.197 253.246 347.254 253.428 347.272 253.616C347.291 253.803 347.271 253.993 347.214 254.173C347.157 254.353 347.064 254.519 346.94 254.661C346.816 254.804 346.665 254.919 346.495 255.001C346.384 255.07 340.211 258.572 339.118 263.187C338.922 264.04 338.916 264.926 339.099 265.782C339.282 266.638 339.65 267.443 340.177 268.142C340.319 268.35 340.402 268.593 340.417 268.844C340.431 269.096 340.377 269.346 340.259 269.569C340.142 269.792 339.966 269.979 339.75 270.109C339.534 270.239 339.287 270.308 339.035 270.308Z" fill="black"/>
<path d="M358.293 272.384C357.953 272.386 357.624 272.264 357.369 272.039C357.114 271.814 356.95 271.504 356.909 271.166C356.639 268.952 352.134 266.322 349.989 265.416L348.079 264.599L354.709 258.184C354.976 257.949 355.323 257.825 355.679 257.839C356.034 257.853 356.371 258.003 356.618 258.259C356.866 258.515 357.006 258.856 357.008 259.212C357.011 259.568 356.876 259.911 356.632 260.17L352.916 263.769C355.345 265.07 359.262 267.644 359.65 270.834C359.693 271.197 359.59 271.563 359.364 271.85C359.139 272.138 358.808 272.325 358.445 272.37L358.293 272.384Z" fill="black"/>
<path d="M310.338 499.512H277.378C276.165 499.512 275.001 499.03 274.143 498.173C273.286 497.315 272.804 496.151 272.804 494.938C272.806 489.961 274.783 485.189 278.302 481.67C281.822 478.151 286.594 476.173 291.571 476.171C296.548 476.171 301.322 478.148 304.841 481.668C308.361 485.187 310.338 489.961 310.338 494.938V499.512Z" fill="black"/>
<path d="M436.981 133.41C436.614 133.43 436.254 133.303 435.98 133.058C435.706 132.813 435.541 132.469 435.521 132.102C435.5 131.735 435.627 131.375 435.872 131.101C436.117 130.827 436.461 130.662 436.828 130.642L458.654 128.227C459.021 128.186 459.389 128.293 459.677 128.524C459.965 128.755 460.15 129.091 460.19 129.458C460.231 129.825 460.124 130.193 459.893 130.482C459.662 130.77 459.326 130.954 458.959 130.995L437.133 133.403L436.981 133.41Z" fill="black"/>
<path d="M435.887 162.792L436.863 171.096L451.312 161.567C451.414 161.502 451.49 161.404 451.527 161.289C451.565 161.174 451.562 161.05 451.519 160.937C451.476 160.824 451.396 160.73 451.291 160.669C451.187 160.609 451.064 160.586 450.945 160.605L435.887 162.792Z" fill="black"/>
<path d="M439.679 225.833C439.489 225.835 439.301 225.797 439.126 225.722C438.794 225.571 438.535 225.296 438.406 224.955C438.276 224.614 438.286 224.236 438.434 223.903L444.108 210.838C444.179 210.668 444.282 210.515 444.413 210.386C444.543 210.257 444.698 210.155 444.868 210.087C445.038 210.018 445.22 209.984 445.403 209.986C445.586 209.989 445.768 210.027 445.936 210.1C446.104 210.173 446.256 210.279 446.383 210.411C446.51 210.543 446.61 210.699 446.676 210.87C446.742 211.041 446.774 211.224 446.769 211.407C446.764 211.59 446.723 211.771 446.648 211.938L440.967 225.003C440.858 225.253 440.677 225.465 440.448 225.612C440.219 225.76 439.952 225.837 439.679 225.833Z" fill="black"/>
<path d="M305.404 425.392C305.037 425.392 304.685 425.246 304.425 424.987C304.166 424.727 304.02 424.375 304.02 424.008V311.406C304.02 311.039 304.166 310.687 304.425 310.427C304.685 310.168 305.037 310.022 305.404 310.022C305.771 310.022 306.123 310.168 306.382 310.427C306.642 310.687 306.788 311.039 306.788 311.406V424.008C306.788 424.375 306.642 424.727 306.382 424.987C306.123 425.246 305.771 425.392 305.404 425.392Z" fill="white"/>
<path d="M160.139 105.135C169.308 105.135 176.74 97.702 176.74 88.5335C176.74 79.3649 169.308 71.9324 160.139 71.9324C150.971 71.9324 143.538 79.3649 143.538 88.5335C143.538 97.702 150.971 105.135 160.139 105.135Z" fill="#FFBB45"/>
<path d="M161.065 136.669C169.422 120.799 166.853 103.015 155.329 96.9462C143.804 90.8777 127.687 98.8234 119.331 114.693C110.974 130.563 113.542 148.348 125.067 154.417C136.591 160.485 152.708 152.539 161.065 136.669Z" fill="#FFBB45"/>
<path d="M157.343 195.441C160.735 171.453 147.679 149.772 128.183 147.015C108.686 144.258 90.1304 161.469 86.7381 185.457C83.3459 209.445 96.4013 231.126 115.898 233.883C135.395 236.64 153.95 219.429 157.343 195.441Z" fill="#FFBB45"/>
<path d="M34.0776 158.287C42.5543 158.287 49.4261 151.415 49.4261 142.939C49.4261 134.462 42.5543 127.59 34.0776 127.59C25.6008 127.59 18.729 134.462 18.729 142.939C18.729 151.415 25.6008 158.287 34.0776 158.287Z" fill="#FFBB45"/>
<path d="M50.5739 205.393C62.1354 202.686 68.6533 188.301 65.1319 173.264C61.6105 158.227 49.3834 148.232 37.8218 150.939C26.2602 153.647 19.7423 168.032 23.2637 183.069C26.7851 198.106 39.0123 208.101 50.5739 205.393Z" fill="#FFBB45"/>
<path d="M65.0419 273.09C81.8286 270.2 92.5533 251.11 88.9961 230.451C85.4388 209.792 68.9468 195.388 52.16 198.279C35.3733 201.169 24.6486 220.26 28.2058 240.918C31.763 261.577 48.2551 275.981 65.0419 273.09Z" fill="#FFBB45"/>
<path d="M84.9601 341.487C84.6212 341.49 84.293 341.368 84.0379 341.145C83.7828 340.922 83.6185 340.612 83.5761 340.276C75.4036 275.443 52.8859 219.1 52.6576 218.567C52.5831 218.397 52.5435 218.214 52.5411 218.029C52.5388 217.844 52.5737 217.66 52.6438 217.488C52.7139 217.316 52.8178 217.16 52.9493 217.03C53.0808 216.899 53.2372 216.796 53.4092 216.727C53.5813 216.658 53.7655 216.624 53.9508 216.627C54.1362 216.631 54.319 216.672 54.4884 216.747C54.6577 216.823 54.8102 216.931 54.9367 217.067C55.0632 217.202 55.1612 217.362 55.2249 217.536C55.4532 218.097 78.1024 274.73 86.3649 339.93C86.3881 340.111 86.3754 340.295 86.3274 340.471C86.2794 340.647 86.197 340.812 86.0852 340.956C85.9733 341.1 85.834 341.22 85.6753 341.31C85.5167 341.4 85.3418 341.458 85.1608 341.48L84.9601 341.487Z" fill="black"/>
<path d="M101.679 342.2C101.312 342.2 100.96 342.054 100.7 341.794C100.441 341.535 100.295 341.183 100.295 340.816C100.122 275.768 109.291 223.612 117.007 191.282C125.38 156.218 133.94 136.247 134.009 136.06C134.158 135.728 134.432 135.468 134.771 135.337C135.111 135.206 135.488 135.213 135.822 135.358C136.155 135.502 136.419 135.772 136.555 136.11C136.691 136.447 136.689 136.825 136.549 137.16C136.466 137.354 127.996 157.159 119.678 192.022C112.004 224.186 102.89 276.121 103.07 340.802C103.07 341.169 102.924 341.521 102.664 341.781C102.405 342.04 102.053 342.186 101.686 342.186L101.679 342.2Z" fill="black"/>
<path d="M109.63 340.816H74.7257C64.1889 340.816 55.6472 349.358 55.6472 359.894V491.789C55.6472 502.326 64.1889 510.868 74.7257 510.868H109.63C120.167 510.868 128.709 502.326 128.709 491.789V359.894C128.709 349.358 120.167 340.816 109.63 340.816Z" fill="#64E8FF"/>
<path d="M59.2041 501.782C58.9332 501.782 58.6681 501.703 58.4418 501.554C58.2155 501.406 58.0378 501.194 57.9308 500.945C57.7832 500.611 57.773 500.233 57.9026 499.892C58.0322 499.552 58.291 499.276 58.6228 499.125C69.4511 494.435 81.1028 491.942 92.9021 491.79C104.701 491.638 116.414 493.83 127.359 498.239C127.688 498.383 127.949 498.65 128.084 498.983C128.22 499.316 128.222 499.689 128.088 500.022C127.954 500.356 127.695 500.624 127.367 500.771C127.038 500.917 126.666 500.93 126.328 500.806C115.721 496.534 104.371 494.41 92.9361 494.557C81.5016 494.705 70.21 497.12 59.7161 501.664C59.5545 501.736 59.3807 501.776 59.2041 501.782Z" fill="black"/>
<path d="M118.577 369.029H66.8159C66.4488 369.029 66.0968 368.883 65.8372 368.623C65.5777 368.364 65.4319 368.012 65.4319 367.645C65.4319 367.278 65.5777 366.926 65.8372 366.666C66.0968 366.407 66.4488 366.261 66.8159 366.261H118.577C118.945 366.261 119.297 366.407 119.556 366.666C119.816 366.926 119.961 367.278 119.961 367.645C119.961 368.012 119.816 368.364 119.556 368.623C119.297 368.883 118.945 369.029 118.577 369.029Z" fill="black"/>
<path d="M105.298 494.551C104.931 494.551 104.579 494.405 104.319 494.145C104.06 493.886 103.914 493.534 103.914 493.167V368.053C103.914 367.686 104.06 367.334 104.319 367.074C104.579 366.815 104.931 366.669 105.298 366.669C105.665 366.669 106.017 366.815 106.277 367.074C106.536 367.334 106.682 367.686 106.682 368.053V493.167C106.682 493.534 106.536 493.886 106.277 494.145C106.017 494.405 105.665 494.551 105.298 494.551Z" fill="black"/>
<path d="M80.0608 494.551C79.6937 494.551 79.3417 494.405 79.0821 494.145C78.8226 493.886 78.6768 493.534 78.6768 493.167V368.053C78.6768 367.686 78.8226 367.334 79.0821 367.074C79.3417 366.815 79.6937 366.669 80.0608 366.669C80.4278 366.669 80.7798 366.815 81.0394 367.074C81.2989 367.334 81.4448 367.686 81.4448 368.053V493.167C81.4448 493.534 81.2989 493.886 81.0394 494.145C80.7798 494.405 80.4278 494.551 80.0608 494.551Z" fill="black"/>
</svg>
