<?xml version="1.0" encoding="utf-8"?>
<!-- Generator: Adobe Illustrator 24.3.0, SVG Export Plug-In . SVG Version: 6.00 Build 0)  -->
<svg version="1.1" id="Layer_1" xmlns="http://www.w3.org/2000/svg" xmlns:xlink="http://www.w3.org/1999/xlink" x="0px" y="0px"
	 viewBox="0 0 1000 1000" style="enable-background:new 0 0 1000 1000;" xml:space="preserve">
<style type="text/css">
	.st0{fill:#1A1A1A;}
	.st1{fill:#FFFFFF;}
</style>
<g>
	<path class="st0" d="M691.1,468.6c0,0,0-0.1-0.1-0.1c-3.1-6.8-8.8-11.4-15.4-13.3c-4.8-1.3-9.9-1.2-14.9,0.6
		c-10.3,3.8-20.1,5.2-28.8,2.8c-8-2.2-14.9-7.7-20.5-17.7l-35.5-63.4c-11.6-20.7-27.8-37.1-46.6-48.8c-9.7-6-20.2-10.8-31-14.2
		c-0.1,0-0.1,0-0.2,0l-37.9,134.6l-38.4-10.8c-9-2.5-18.4,2.7-20.9,11.7c-2.5,9,2.7,18.4,11.7,20.9l52.2,14.7
		c10.4,2.9,21.1-3.1,24-13.5l31-110c11,8.4,20.3,19,27.3,31.4l35.5,63.4c12.1,21.5,28.6,30,40.3,33.3c1.6,0.4,3.2,0.8,4.8,1.1
		l-108.9,61.1l-0.5,0.3l-0.5,0.3l-108.9,61.1c0.6-1.5,1.1-3.1,1.5-4.7c3.3-11.7,4.7-30.3-7.4-51.8l-34.7-61.8
		c-13.5-24.1-17.6-52.6-10.2-79.2c7.4-26.4,24.6-48.3,48.5-61.8c0.2-0.1,0.4-0.2,0.5-0.3c0.2-0.1,0.3-0.2,0.5-0.3
		c11.5-6.4,23.9-10.5,36.6-12.2c6.4-0.9,12.1-5.1,14.1-11.3c3.7-11.3-5.3-22.7-17-21.7c-11.8,1-23.4,3.2-33.7,6.7
		c0,0-4.2-7.6-4.2-7.6c-8.1-14.4-30.7-11.3-35.5,4.2l-26.8,61.7L319.8,422c-2.1,4.5-4,9.1-5.5,13.5c0,0,0,0.1,0,0.1
		c-0.8,2.2-1.5,4.3-2.1,6.5c-9.4,33.3-6,70.3,12.2,102.9l35.6,63.4c5.6,9.9,6.6,18.8,4.4,26.7c-2.4,8.7-8.8,16.3-17.4,23.1
		c-4.1,3.3-6.9,7.6-8.2,12.4c-1.9,6.6-0.9,13.9,3.3,20.1c7.1,10.5,21.4,13.3,32.5,7.1l66.8-37.5c3.5,4.5,7.9,8.4,13.2,11.4
		c14.7,8.4,33,7,47.4-2c9.7-6,15-13.9,17.9-22.2c0,0,0-0.1,0.1-0.3l15.9-40l130-72.9c5.5-3.1,9.5-8,11.5-13.5l13.8-34.4
		C693.4,480.7,693.6,474.3,691.1,468.6z"/>
</g>
</svg>
