<?xml version="1.0" encoding="UTF-8" standalone="no"?>
<!DOCTYPE svg PUBLIC "-//W3C//DTD SVG 1.1//EN" "http://www.w3.org/Graphics/SVG/1.1/DTD/svg11.dtd">

<!-- Created with Vectornator (http://vectornator.io/) -->
<svg height="100%" stroke-miterlimit="10" style="fill-rule:nonzero;clip-rule:evenodd;stroke-linecap:round;stroke-linejoin:round;" version="1.1" viewBox="0 0 508.619 150.633" width="100%" xml:space="preserve" xmlns="http://www.w3.org/2000/svg" xmlns:vectornator="http://vectornator.io" xmlns:xlink="http://www.w3.org/1999/xlink">
<metadata>
<vectornator:setting key="IsTimeLapseWatermarkDisabled" value="false"/>
<vectornator:setting key="UndoHistoryDisabled" value="true"/>
<vectornator:setting key="VNDimensionsVisible" value="true"/>
<vectornator:setting key="VNSnapToGuides" value="true"/>
<vectornator:setting key="WDCMYKEnabledKey" value="false"/>
<vectornator:setting key="WDDisplayWhiteBackground" value="false"/>
<vectornator:setting key="WDDynamicGuides" value="false"/>
<vectornator:setting key="WDGuidesVisible" value="true"/>
<vectornator:setting key="WDIsolateActiveLayer" value="false"/>
<vectornator:setting key="WDOutlineMode" value="false"/>
<vectornator:setting key="WDRulersVisible" value="true"/>
<vectornator:setting key="WDSnapToEdges" value="false"/>
<vectornator:setting key="WDSnapToGrid" value="false"/>
<vectornator:setting key="WDSnapToPoints" value="false"/>
<vectornator:setting key="WDUnits" value="Points"/>
</metadata>
<defs/>
<g id="Untitled" vectornator:layerName="Untitled">
<g opacity="1">
<g opacity="1">
<path d="M171.55 30.816L171.55 102.416L159.15 102.416L159.15 30.816C159.15 30.816 171.55 30.816 171.55 30.816Z" fill="#ffffff" fill-rule="evenodd" opacity="1" stroke="none"/>
<path d="M193.15 81.616C193.95 87.816 199.35 92.416 208.25 92.416C212.85 92.416 218.95 90.716 221.75 87.716L229.75 95.616C224.45 101.116 215.75 103.816 208.05 103.816C190.65 103.816 180.25 93.016 180.25 76.916C180.25 61.516 190.75 50.516 207.05 50.516C223.95 50.516 234.55 61.016 232.55 81.716L193.15 81.716L193.15 81.616ZM220.55 71.316C219.75 64.716 214.65 61.516 207.45 61.516C200.65 61.516 195.15 64.816 193.35 71.316L220.55 71.316Z" fill="#ffffff" fill-rule="evenodd" opacity="1" stroke="none"/>
<path d="M274.75 102.416L274.75 75.416C274.75 68.716 271.25 62.716 264.45 62.716C257.65 62.716 253.65 68.716 253.65 75.416L253.65 102.416L241.15 102.416L241.15 51.816L252.75 51.816L253.65 57.916C256.35 52.816 262.15 50.916 266.95 50.916C272.95 50.916 279.05 53.416 281.95 60.316C286.45 53.116 292.25 51.116 298.85 51.116C313.15 51.116 320.25 59.916 320.25 75.116L320.25 102.416L307.75 102.416L307.75 75.116C307.75 68.416 304.95 62.816 298.25 62.816C291.55 62.816 287.25 68.616 287.25 75.316L287.25 102.316L274.75 102.316L274.75 102.416Z" fill="#ffffff" fill-rule="evenodd" opacity="1" stroke="none"/>
<path d="M343.65 81.616C344.45 87.816 349.85 92.416 358.75 92.416C363.35 92.416 369.45 90.716 372.25 87.716L380.25 95.616C374.95 101.116 366.25 103.816 358.55 103.816C341.15 103.816 330.75 93.016 330.75 76.916C330.75 61.516 341.25 50.516 357.55 50.516C374.45 50.516 385.05 61.016 383.05 81.716L343.65 81.716L343.65 81.616ZM371.05 71.316C370.25 64.716 365.15 61.516 357.95 61.516C351.15 61.516 345.65 64.816 343.85 71.316L371.05 71.316Z" fill="#ffffff" fill-rule="evenodd" opacity="1" stroke="none"/>
<path d="M429.85 102.416L429.85 76.016C429.85 68.316 425.65 62.516 417.65 62.516C409.95 62.516 404.75 69.016 404.75 76.616L404.75 102.416L392.35 102.416L392.35 51.816L403.55 51.816L404.35 58.716C409.45 53.716 414.55 51.116 420.95 51.116C432.85 51.116 442.35 60.016 442.35 75.916L442.35 102.416L429.85 102.416Z" fill="#ffffff" fill-rule="evenodd" opacity="1" stroke="none"/>
<path d="M503.35 77.216C503.35 91.716 493.45 103.516 477.05 103.516C460.65 103.516 450.85 91.716 450.85 77.216C450.85 62.816 460.85 50.916 476.95 50.916C493.05 50.916 503.35 62.816 503.35 77.216ZM463.25 77.216C463.25 84.916 467.85 92.116 476.95 92.116C486.05 92.116 490.65 84.916 490.65 77.216C490.65 69.616 485.35 62.216 476.95 62.216C468.05 62.316 463.25 69.616 463.25 77.216Z" fill="#ffffff" fill-rule="evenodd" opacity="1" stroke="none"/>
</g>
<path d="M138.65 64.516L138.65 64.516C137.55 62.116 135.55 60.516 133.25 59.816C131.55 59.316 129.75 59.416 128.05 60.016C124.45 61.316 121.05 61.816 118.05 61.016C115.25 60.216 112.85 58.316 110.95 54.916L98.5502 32.916C94.5502 25.716 88.8502 20.016 82.3502 15.916C78.9502 13.816 75.3502 12.216 71.5502 11.016C71.5502 11.016 71.5502 11.016 71.4502 11.016L58.2502 57.816L44.9502 54.016C41.8502 53.116 38.5502 54.916 37.6502 58.116C36.7502 61.216 38.5502 64.516 41.7502 65.416L59.9502 70.516C63.5502 71.516 67.2502 69.416 68.3502 65.816L79.1502 27.616C82.9502 30.516 86.2502 34.216 88.6502 38.516L101.05 60.516C105.25 68.016 110.95 70.916 115.05 72.116C115.55 72.316 116.15 72.416 116.75 72.516L78.8502 93.716L78.6502 93.816L78.4502 93.916L40.5502 115.116C40.7502 114.616 40.9502 114.016 41.0502 113.516C42.1502 109.416 42.6502 103.016 38.4502 95.516L26.3502 74.016C21.6502 65.616 20.2502 55.716 22.8502 46.516C25.4502 37.316 31.4502 29.716 39.7502 25.016C39.8502 25.016 39.8502 24.916 39.9502 24.916C40.0502 24.916 40.0502 24.816 40.1502 24.816C44.1502 22.616 48.4502 21.116 52.8502 20.516C55.0502 20.216 57.0502 18.716 57.7502 16.616C59.0502 12.716 55.9502 8.71604 51.8502 9.01604C47.7502 9.31604 43.7502 10.116 40.1502 11.316L38.6502 8.71604C35.8502 3.71604 27.9502 4.81604 26.3502 10.216L17.0502 31.616L9.65022 48.216C8.95022 49.816 8.25022 51.416 7.75022 52.916L7.75022 52.916C7.45022 53.716 7.25022 54.416 7.05022 55.116C3.75022 66.716 4.95022 79.516 11.3502 90.916L23.7502 112.916C25.6502 116.316 26.0502 119.416 25.2502 122.216C24.4502 125.216 22.2502 127.916 19.2502 130.216C17.8502 131.316 16.8502 132.916 16.3502 134.516C15.7502 136.816 16.0502 139.316 17.4502 141.516C19.9502 145.216 24.8502 146.116 28.7502 144.016L51.9502 131.016C53.1502 132.616 54.6502 133.916 56.5502 135.016C61.6502 137.916 68.0502 137.416 73.0502 134.316C76.4502 132.216 78.2502 129.516 79.2502 126.616C79.2502 126.616 79.2502 126.616 79.2502 126.516L84.7502 112.616L129.95 87.316C131.85 86.216 133.25 84.516 133.95 82.616L138.75 70.616C139.45 68.716 139.45 66.516 138.65 64.516Z" fill="#64e8ff" fill-rule="evenodd" opacity="1" stroke="none"/>
</g>
</g>
</svg>
