<svg width="248" height="38" viewBox="0 0 248 38" fill="none" xmlns="http://www.w3.org/2000/svg">
<path fill-rule="evenodd" clip-rule="evenodd" d="M19.5093 12.5487C14.0879 13.1244 10.8582 13.6426 10.3392 14.2183C9.07031 15.485 11.6079 16.1186 19.6246 16.1761C19.6823 16.1761 227.829 11.4548 227.887 11.4548C237.288 11.0518 238.038 10.5337 238.038 9.55492C238.038 8.28825 235.5 7.42439 230.079 7.02136C222.927 6.38802 59.593 8.46081 19.5093 12.5487ZM231.405 15.4275C228.868 15.5426 63.688 19.3426 59.5355 19.688C8.66662 23.4305 4.74476 24.0064 10.2238 26.77C12.8769 28.0943 17.8945 28.0941 39.6378 26.5971C92.0638 23.085 241.325 22.6822 246.574 20.7822C248.996 19.861 249.342 14.7941 231.405 15.4275Z" fill="#F2EADA"/>
</svg>
