<svg width="276" height="264" viewBox="0 0 276 264" fill="none" xmlns="http://www.w3.org/2000/svg">
<path d="M258.035 169.275L98.6604 7.33441C86.6952 -4.82155 66.1163 0.489088 61.5961 16.9115L1.55027 235.53C-2.95633 251.941 12.0023 267.14 28.4741 262.885L247.873 206.22C264.369 201.95 269.998 181.423 258.035 169.275Z" fill="#64E8FF" fill-opacity="0.5"/>
<path d="M184.411 46H262.217C269.072 46 274.628 51.5567 274.628 58.4111V143.589C274.628 150.443 269.072 156 262.217 156H184.411C177.557 156 172 150.443 172 143.589V58.4111C172 51.5567 177.557 46 184.411 46Z" fill="white" stroke="black" stroke-width="2"/>
<path d="M197.164 87.1202H186.757C183.736 87.1202 181.288 89.5687 181.288 92.5892V102.997C181.288 106.017 183.736 108.466 186.757 108.466H197.164C200.185 108.466 202.633 106.017 202.633 102.997V92.5892C202.633 89.5687 200.185 87.1202 197.164 87.1202Z" fill="#C7B8F8"/>
<path d="M197.164 119.527H186.757C183.736 119.527 181.288 121.976 181.288 124.996V135.403C181.288 138.424 183.736 140.872 186.757 140.872H197.164C200.185 140.872 202.633 138.424 202.633 135.403V124.996C202.633 121.976 200.185 119.527 197.164 119.527Z" fill="#C7B8F8"/>
<path d="M263.965 92.601H215.785C215.573 92.601 215.371 92.517 215.221 92.3674C215.071 92.2177 214.987 92.0148 214.987 91.8032C214.987 91.5916 215.071 91.3887 215.221 91.2391C215.371 91.0895 215.573 91.0054 215.785 91.0054H263.965C264.176 91.0054 264.379 91.0895 264.529 91.2391C264.678 91.3887 264.762 91.5916 264.762 91.8032C264.762 92.0148 264.678 92.2177 264.529 92.3674C264.379 92.517 264.176 92.601 263.965 92.601Z" fill="black"/>
<path d="M245.483 104.353H215.785C215.573 104.353 215.371 104.269 215.221 104.119C215.071 103.97 214.987 103.767 214.987 103.555C214.987 103.343 215.071 103.141 215.221 102.991C215.371 102.841 215.573 102.757 215.785 102.757H245.483C245.695 102.757 245.898 102.841 246.048 102.991C246.197 103.141 246.281 103.343 246.281 103.555C246.281 103.767 246.197 103.97 246.048 104.119C245.898 104.269 245.695 104.353 245.483 104.353Z" fill="black"/>
<path d="M263.965 125.12H215.785C215.573 125.12 215.371 125.036 215.221 124.886C215.071 124.736 214.987 124.533 214.987 124.322C214.987 124.11 215.071 123.907 215.221 123.758C215.371 123.608 215.573 123.524 215.785 123.524H263.965C264.176 123.524 264.379 123.608 264.529 123.758C264.678 123.907 264.762 124.11 264.762 124.322C264.762 124.533 264.678 124.736 264.529 124.886C264.379 125.036 264.176 125.12 263.965 125.12Z" fill="black"/>
<path d="M245.483 136.871H215.785C215.573 136.871 215.371 136.787 215.221 136.638C215.071 136.488 214.987 136.285 214.987 136.074C214.987 135.862 215.071 135.659 215.221 135.509C215.371 135.36 215.573 135.276 215.785 135.276H245.483C245.695 135.276 245.898 135.36 246.048 135.509C246.197 135.659 246.281 135.862 246.281 136.074C246.281 136.285 246.197 136.488 246.048 136.638C245.898 136.787 245.695 136.871 245.483 136.871Z" fill="black"/>
<path d="M191.691 56.7517H192.23C193.929 56.7517 195.558 57.4266 196.76 58.6281C197.961 59.8295 198.636 61.459 198.636 63.1581V70.1109H185.285V63.1581C185.285 61.459 185.96 59.8295 187.161 58.6281C188.363 57.4266 189.992 56.7517 191.691 56.7517Z" fill="#FFBB45"/>
<path d="M199.562 68.8145H184.36C183.161 68.8145 182.19 69.7861 182.19 70.9845V71.1641C182.19 72.3625 183.161 73.3341 184.36 73.3341H199.562C200.76 73.3341 201.732 72.3625 201.732 71.1641V70.9845C201.732 69.7861 200.76 68.8145 199.562 68.8145Z" fill="#FFBB45"/>
<path d="M191.963 76.0067C193.439 76.0067 194.635 74.8101 194.635 73.334C194.635 71.858 193.439 70.6614 191.963 70.6614C190.487 70.6614 189.29 71.858 189.29 73.334C189.29 74.8101 190.487 76.0067 191.963 76.0067Z" fill="#FFBB45"/>
<path d="M191.887 53.8118H192.038C192.512 53.8118 192.967 54.0001 193.302 54.3352C193.637 54.6704 193.825 55.1249 193.825 55.5989V59.5201H190.104V55.5989C190.104 55.1256 190.291 54.6717 190.626 54.3367C190.96 54.0016 191.414 53.8129 191.887 53.8118Z" fill="#FFBB45"/>
<path d="M227.464 201.392H156.934V186.17H227.464C228.401 186.171 229.3 186.544 229.963 187.207C230.626 187.87 230.999 188.768 231 189.706V197.86C230.999 198.797 230.626 199.696 229.963 200.358C229.3 201.02 228.401 201.392 227.464 201.392Z" fill="black"/>
<path d="M164.879 201.392H82.3739C80.8367 201.408 79.3356 200.926 78.0944 200.019C76.8532 199.112 75.9384 197.828 75.4863 196.359L55.2805 127.86C53.9717 123.422 57.4072 119 62.1682 119H139.988C141.593 118.986 143.155 119.512 144.424 120.496C145.692 121.479 146.591 122.862 146.976 124.42L164.879 201.392Z" fill="black"/>
<path d="M104.958 178.129C111.273 178.129 116.393 173.009 116.393 166.694C116.393 160.379 111.273 155.259 104.958 155.259C98.643 155.259 93.5235 160.379 93.5235 166.694C93.5235 173.009 98.643 178.129 104.958 178.129Z" fill="#FFC1EB"/>
<path d="M102.446 158.535C102.258 158.535 102.075 158.471 101.928 158.355C101.78 158.239 101.676 158.076 101.632 157.893L100.264 152.294C100.238 152.186 100.233 152.075 100.25 151.966C100.267 151.857 100.305 151.753 100.362 151.658C100.42 151.564 100.495 151.482 100.584 151.417C100.673 151.352 100.774 151.305 100.881 151.278C100.988 151.252 101.099 151.247 101.208 151.264C101.317 151.281 101.422 151.319 101.516 151.376C101.61 151.434 101.692 151.509 101.758 151.598C101.823 151.687 101.87 151.788 101.896 151.895L103.259 157.495C103.29 157.618 103.292 157.747 103.265 157.872C103.239 157.996 103.184 158.113 103.106 158.213C103.027 158.313 102.927 158.394 102.813 158.45C102.698 158.506 102.573 158.535 102.446 158.535Z" fill="#6DC8C2"/>
<path d="M30.4741 172.36C28.8064 172.362 27.1429 172.193 25.5097 171.856C23.2467 171.344 21.0892 170.445 19.1325 169.198C14.0396 166.045 8.2603 166.152 4.30999 166.794L3.17627 166.98L5.10713 146.759C5.20456 143.034 16.7898 142.047 22.9278 142.047C29.0659 142.047 40.6776 143.025 40.7529 146.768L42.3561 169.708L41.7715 169.951C38.2072 171.509 34.364 172.329 30.4741 172.36ZM8.68545 164.655C12.6881 164.583 16.6307 165.634 20.0669 167.688C21.8465 168.83 23.8111 169.652 25.8728 170.12C29.1146 170.802 34.2473 171.067 40.4872 168.561L38.9815 146.803C38.9815 146.086 34.1543 143.814 22.9278 143.814C11.7013 143.814 6.87414 146.086 6.87414 146.803V146.887L5.15584 164.881C6.3265 164.732 7.50536 164.656 8.68545 164.655Z" fill="black"/>
<path d="M42.5994 167.569C35.5712 170.368 29.7255 170.186 25.846 169.42C23.5596 168.933 21.369 168.073 19.3626 166.873C13.7515 163.609 7.44962 163.658 2.93245 164.345L1.08573 182.533C0.849715 184.849 1.10233 187.19 1.82725 189.403C2.55216 191.616 3.73324 193.652 5.2942 195.38C6.85515 197.107 8.76126 198.489 10.8893 199.434C13.0174 200.379 15.3201 200.868 17.6487 200.867H27.1392C29.4297 200.867 31.6957 200.395 33.7954 199.48C35.895 198.564 37.7833 197.225 39.342 195.547C40.9007 193.869 42.0963 191.887 42.8542 189.725C43.612 187.564 43.9158 185.269 43.7464 182.985L42.5994 167.569Z" fill="#FFBB45"/>
<path d="M21.5813 189.375H21.5016C21.268 189.354 21.0523 189.241 20.902 189.06C20.7517 188.88 20.6791 188.648 20.7 188.414L26.2136 127.388C26.2926 126.461 26.7179 125.597 27.4048 124.97C28.0917 124.342 28.9898 123.996 29.9203 124H43.0379C43.2728 124 43.4981 124.093 43.6642 124.26C43.8303 124.426 43.9236 124.651 43.9236 124.886C43.9236 125.121 43.8303 125.346 43.6642 125.512C43.4981 125.678 43.2728 125.772 43.0379 125.772H29.9203C29.4336 125.771 28.9641 125.952 28.6043 126.28C28.2445 126.608 28.0205 127.058 27.9762 127.543L22.4626 188.569C22.4427 188.789 22.3413 188.994 22.1782 189.143C22.0152 189.292 21.8023 189.375 21.5813 189.375Z" fill="black"/>
<path d="M22.8922 151.44C22.3829 151.44 21.8736 151.44 21.3688 151.413C15.9169 151.207 10.5612 149.914 5.61624 147.609C5.51068 147.56 5.41584 147.49 5.33713 147.405C5.25841 147.319 5.19737 147.218 5.15748 147.109C5.1176 147 5.09963 146.883 5.10464 146.767C5.10965 146.651 5.13753 146.537 5.18668 146.431C5.23582 146.325 5.30528 146.231 5.39108 146.152C5.47687 146.073 5.57732 146.012 5.68671 145.972C5.79609 145.932 5.91228 145.914 6.02861 145.919C6.14493 145.924 6.25912 145.952 6.36467 146.001C11.0909 148.207 16.2103 149.444 21.4219 149.642C27.6444 149.865 33.8318 148.618 39.4818 146.001C39.5874 145.952 39.7019 145.923 39.8186 145.918C39.9353 145.913 40.0519 145.93 40.1616 145.97C40.2714 146.01 40.3722 146.071 40.4582 146.15C40.5443 146.229 40.6138 146.325 40.6629 146.431C40.7119 146.537 40.7395 146.651 40.7441 146.768C40.7487 146.885 40.7301 147.001 40.6895 147.111C40.6489 147.22 40.587 147.321 40.5074 147.406C40.4278 147.492 40.3321 147.561 40.2258 147.609C34.7919 150.121 28.8788 151.428 22.8922 151.44Z" fill="black"/>
</svg>
