<?xml version="1.0" encoding="UTF-8" standalone="no"?>
<!DOCTYPE svg PUBLIC "-//W3C//DTD SVG 1.1//EN" "http://www.w3.org/Graphics/SVG/1.1/DTD/svg11.dtd">

<!-- Created with Vectornator (http://vectornator.io/) -->
<svg height="100%" stroke-miterlimit="10" style="fill-rule:nonzero;clip-rule:evenodd;stroke-linecap:round;stroke-linejoin:round;" version="1.1" viewBox="0 0 409.629 423.757" width="100%" xml:space="preserve" xmlns="http://www.w3.org/2000/svg" xmlns:vectornator="http://vectornator.io" xmlns:xlink="http://www.w3.org/1999/xlink">
<metadata>
<vectornator:setting key="IsTimeLapseWatermarkDisabled" value="false"/>
<vectornator:setting key="UndoHistoryDisabled" value="true"/>
<vectornator:setting key="VNDimensionsVisible" value="true"/>
<vectornator:setting key="VNSnapToGuides" value="true"/>
<vectornator:setting key="WDCMYKEnabledKey" value="false"/>
<vectornator:setting key="WDDisplayWhiteBackground" value="false"/>
<vectornator:setting key="WDDynamicGuides" value="false"/>
<vectornator:setting key="WDGuidesVisible" value="true"/>
<vectornator:setting key="WDIsolateActiveLayer" value="false"/>
<vectornator:setting key="WDOutlineMode" value="false"/>
<vectornator:setting key="WDRulersVisible" value="true"/>
<vectornator:setting key="WDSnapToEdges" value="false"/>
<vectornator:setting key="WDSnapToGrid" value="false"/>
<vectornator:setting key="WDSnapToPoints" value="false"/>
<vectornator:setting key="WDUnits" value="Points"/>
</metadata>
<defs/>
<g id="Untitled" vectornator:layerName="Untitled">
<path d="M395.899 180.538C395.899 180.538 395.899 180.438 395.799 180.438C392.699 173.638 386.999 169.038 380.399 167.138C375.599 165.838 370.499 165.938 365.499 167.738C355.199 171.538 345.399 172.938 336.699 170.538C328.699 168.338 321.799 162.838 316.199 152.838L280.699 89.4384C269.099 68.7384 252.899 52.3384 234.099 40.6384C224.399 34.6384 213.899 29.8384 203.099 26.4384C202.999 26.4384 202.999 26.4384 202.899 26.4384L164.999 161.038L126.599 150.238C117.599 147.738 108.199 152.938 105.699 161.938C103.199 170.938 108.399 180.338 117.399 182.838L169.599 197.538C179.999 200.438 190.699 194.438 193.599 184.038L224.599 74.0385C235.599 82.4385 244.899 93.0385 251.899 105.438L287.399 168.838C299.499 190.338 315.999 198.838 327.699 202.138C329.299 202.538 330.899 202.938 332.499 203.238L223.599 264.338L223.099 264.638L222.599 264.938L113.699 326.038C114.299 324.538 114.799 322.938 115.199 321.338C118.499 309.638 119.899 291.038 107.799 269.538L73.0991 207.738C59.5991 183.638 55.4991 155.138 62.8991 128.538C70.2991 102.138 87.4991 80.2385 111.399 66.7385C111.599 66.6385 111.799 66.5385 111.899 66.4385C112.099 66.3385 112.199 66.2385 112.399 66.1385C123.899 59.7385 136.299 55.6385 148.999 53.9385C155.399 53.0385 161.099 48.8385 163.099 42.6385C166.799 31.3385 157.799 19.9385 146.099 20.9385C134.299 21.9385 122.699 24.1385 112.399 27.6385L108.199 20.0385C100.099 5.63846 77.4991 8.73845 72.6991 24.2385L45.8991 85.9385L24.5991 133.938C22.4991 138.438 20.5991 143.038 19.0991 147.438L19.0991 147.538C18.2991 149.738 17.5991 151.838 16.9991 154.038C7.59915 187.338 10.9991 224.338 29.1991 256.938L64.7991 320.338C70.3991 330.238 71.3991 339.138 69.1991 347.038C66.7991 355.738 60.3991 363.338 51.7991 370.138C47.6991 373.438 44.8991 377.738 43.5991 382.538C41.6991 389.138 42.6991 396.438 46.8991 402.638C53.9991 413.138 68.2991 415.938 79.3991 409.738L146.199 372.238C149.699 376.738 154.099 380.638 159.399 383.638C174.099 392.038 192.399 390.638 206.799 381.638C216.499 375.638 221.799 367.738 224.699 359.438C224.699 359.438 224.699 359.338 224.799 359.138L240.699 319.138L370.699 246.238C376.199 243.138 380.199 238.238 382.199 232.738L395.999 198.338C398.199 192.638 398.399 186.238 395.899 180.538Z" fill="#1a1a1a" fill-rule="evenodd" opacity="1" stroke="none"/>
</g>
</svg>
